<mxfile host="app.diagrams.net" agent="Mozilla/5.0 (Windows NT 10.0; Win64; x64) AppleWebKit/537.36 (KHTML, like Gecko) Chrome/127.0.0.0 Safari/537.36" version="24.7.7" pages="2">
  <diagram name="Up_Dn_Counter" id="TVyd5RWMH1B-2b2rY6FA">
    <mxGraphModel dx="2278" dy="1428" grid="0" gridSize="10" guides="1" tooltips="1" connect="1" arrows="1" fold="1" page="0" pageScale="1" pageWidth="827" pageHeight="1169" math="0" shadow="0">
      <root>
        <mxCell id="0" />
        <mxCell id="1" parent="0" />
        <mxCell id="Ym4xe4FT287uwdKxdX6L-2" value="" style="rounded=0;whiteSpace=wrap;html=1;" parent="1" vertex="1">
          <mxGeometry x="716.5" y="-100" width="96" height="129" as="geometry" />
        </mxCell>
        <mxCell id="ZvFuY1kTVgALxDAI7tLK-1" style="edgeStyle=none;curved=1;rounded=0;orthogonalLoop=1;jettySize=auto;html=1;fontSize=12;startSize=8;endSize=8;endArrow=none;endFill=0;" edge="1" parent="1" source="Ym4xe4FT287uwdKxdX6L-3">
          <mxGeometry relative="1" as="geometry">
            <mxPoint x="678.5088147615133" y="-0.5" as="targetPoint" />
          </mxGeometry>
        </mxCell>
        <mxCell id="Ym4xe4FT287uwdKxdX6L-3" value="" style="triangle;whiteSpace=wrap;html=1;" parent="1" vertex="1">
          <mxGeometry x="716.5" y="-18" width="27" height="35" as="geometry" />
        </mxCell>
        <mxCell id="Ym4xe4FT287uwdKxdX6L-4" value="D" style="text;html=1;align=center;verticalAlign=middle;resizable=0;points=[];autosize=1;strokeColor=none;fillColor=none;fontSize=16;" parent="1" vertex="1">
          <mxGeometry x="715" y="-95" width="30" height="31" as="geometry" />
        </mxCell>
        <mxCell id="Ym4xe4FT287uwdKxdX6L-25" value="" style="rounded=0;orthogonalLoop=1;jettySize=auto;html=1;fontSize=12;startSize=8;endSize=8;endArrow=none;endFill=0;" parent="1" source="Ym4xe4FT287uwdKxdX6L-5" target="Ym4xe4FT287uwdKxdX6L-26" edge="1">
          <mxGeometry relative="1" as="geometry">
            <mxPoint x="885.5" y="-79.5" as="targetPoint" />
          </mxGeometry>
        </mxCell>
        <mxCell id="Ym4xe4FT287uwdKxdX6L-5" value="Q" style="text;html=1;align=center;verticalAlign=middle;resizable=0;points=[];autosize=1;strokeColor=none;fillColor=none;fontSize=16;" parent="1" vertex="1">
          <mxGeometry x="780.5" y="-95" width="30" height="31" as="geometry" />
        </mxCell>
        <mxCell id="uPy3z9FFIgUIdOMCj2ZU-18" style="edgeStyle=orthogonalEdgeStyle;rounded=0;orthogonalLoop=1;jettySize=auto;html=1;exitX=1;exitY=0.5;exitDx=0;exitDy=-5;exitPerimeter=0;endArrow=none;endFill=0;" parent="1" source="Ym4xe4FT287uwdKxdX6L-8" target="Ym4xe4FT287uwdKxdX6L-4" edge="1">
          <mxGeometry relative="1" as="geometry" />
        </mxCell>
        <mxCell id="Ym4xe4FT287uwdKxdX6L-8" value="Mux" style="shadow=0;dashed=0;align=center;html=1;strokeWidth=1;shape=mxgraph.electrical.abstract.mux2;whiteSpace=wrap;" parent="1" vertex="1">
          <mxGeometry x="517" y="-90" width="80" height="120" as="geometry" />
        </mxCell>
        <mxCell id="Ym4xe4FT287uwdKxdX6L-13" value="" style="edgeStyle=none;curved=1;rounded=0;orthogonalLoop=1;jettySize=auto;html=1;fontSize=12;startSize=8;endSize=8;endArrow=none;endFill=0;" parent="1" source="Ym4xe4FT287uwdKxdX6L-11" target="Ym4xe4FT287uwdKxdX6L-8" edge="1">
          <mxGeometry relative="1" as="geometry" />
        </mxCell>
        <mxCell id="Ym4xe4FT287uwdKxdX6L-11" value="&lt;font style=&quot;font-size: 16px;&quot;&gt;&lt;b&gt;Load&lt;/b&gt;&lt;/font&gt;" style="text;html=1;align=center;verticalAlign=middle;resizable=0;points=[];autosize=1;strokeColor=none;fillColor=none;fontSize=16;" parent="1" vertex="1">
          <mxGeometry x="529.5" y="66" width="56" height="31" as="geometry" />
        </mxCell>
        <mxCell id="Ym4xe4FT287uwdKxdX6L-14" value="&lt;font style=&quot;font-size: 16px;&quot;&gt;&lt;b&gt;IN&lt;/b&gt;&lt;/font&gt;" style="text;html=1;align=center;verticalAlign=middle;resizable=0;points=[];autosize=1;strokeColor=none;fillColor=none;fontSize=16;" parent="1" vertex="1">
          <mxGeometry x="440" y="-25" width="34" height="31" as="geometry" />
        </mxCell>
        <mxCell id="Ym4xe4FT287uwdKxdX6L-16" style="edgeStyle=none;curved=1;rounded=0;orthogonalLoop=1;jettySize=auto;html=1;entryX=0;entryY=0.65;entryDx=0;entryDy=3;entryPerimeter=0;fontSize=12;startSize=8;endSize=8;endArrow=none;endFill=0;" parent="1" target="Ym4xe4FT287uwdKxdX6L-8" edge="1">
          <mxGeometry relative="1" as="geometry">
            <mxPoint x="476" y="-9" as="sourcePoint" />
          </mxGeometry>
        </mxCell>
        <mxCell id="Ym4xe4FT287uwdKxdX6L-17" value="Mux" style="shadow=0;dashed=0;align=center;html=1;strokeWidth=1;shape=mxgraph.electrical.abstract.mux2;whiteSpace=wrap;" parent="1" vertex="1">
          <mxGeometry x="18" y="255" width="80" height="120" as="geometry" />
        </mxCell>
        <mxCell id="Ym4xe4FT287uwdKxdX6L-26" value="&lt;b&gt;Counter&lt;/b&gt;" style="text;html=1;align=center;verticalAlign=middle;resizable=0;points=[];autosize=1;strokeColor=none;fillColor=none;fontSize=16;" parent="1" vertex="1">
          <mxGeometry x="1022.5" y="-95" width="79" height="31" as="geometry" />
        </mxCell>
        <mxCell id="uPy3z9FFIgUIdOMCj2ZU-50" style="edgeStyle=orthogonalEdgeStyle;rounded=0;orthogonalLoop=1;jettySize=auto;html=1;exitX=0.5;exitY=0;exitDx=0;exitDy=0;endArrow=none;endFill=0;" parent="1" source="Ym4xe4FT287uwdKxdX6L-27" edge="1">
          <mxGeometry relative="1" as="geometry">
            <mxPoint x="863.6668192545576" y="-79.22218831380178" as="targetPoint" />
            <Array as="points">
              <mxPoint x="-166" y="-173" />
              <mxPoint x="864" y="-173" />
            </Array>
          </mxGeometry>
        </mxCell>
        <mxCell id="Ym4xe4FT287uwdKxdX6L-27" value="Subtractor" style="rounded=0;whiteSpace=wrap;html=1;" parent="1" vertex="1">
          <mxGeometry x="-226" y="-54" width="120" height="60" as="geometry" />
        </mxCell>
        <mxCell id="uPy3z9FFIgUIdOMCj2ZU-81" style="edgeStyle=orthogonalEdgeStyle;rounded=0;orthogonalLoop=1;jettySize=auto;html=1;endArrow=none;endFill=0;" parent="1" source="Ym4xe4FT287uwdKxdX6L-28" edge="1">
          <mxGeometry relative="1" as="geometry">
            <mxPoint x="-165.9999999999999" y="-175.77781168619777" as="targetPoint" />
            <Array as="points">
              <mxPoint x="-166" y="129" />
              <mxPoint x="-364" y="129" />
              <mxPoint x="-364" y="-176" />
            </Array>
          </mxGeometry>
        </mxCell>
        <mxCell id="Ym4xe4FT287uwdKxdX6L-28" value="Adder" style="rounded=0;whiteSpace=wrap;html=1;" parent="1" vertex="1">
          <mxGeometry x="-226" y="312" width="120" height="60" as="geometry" />
        </mxCell>
        <mxCell id="uPy3z9FFIgUIdOMCj2ZU-7" style="edgeStyle=orthogonalEdgeStyle;rounded=0;orthogonalLoop=1;jettySize=auto;html=1;entryX=0;entryY=0.65;entryDx=0;entryDy=3;entryPerimeter=0;endArrow=none;endFill=0;" parent="1" source="Ym4xe4FT287uwdKxdX6L-28" target="Ym4xe4FT287uwdKxdX6L-17" edge="1">
          <mxGeometry relative="1" as="geometry">
            <Array as="points">
              <mxPoint x="-71" y="336" />
              <mxPoint x="-71" y="336" />
            </Array>
          </mxGeometry>
        </mxCell>
        <mxCell id="uPy3z9FFIgUIdOMCj2ZU-51" style="edgeStyle=orthogonalEdgeStyle;rounded=0;orthogonalLoop=1;jettySize=auto;html=1;exitX=0;exitY=0.21666666666666667;exitDx=0;exitDy=3;exitPerimeter=0;endArrow=none;endFill=0;" parent="1" source="uPy3z9FFIgUIdOMCj2ZU-13" edge="1">
          <mxGeometry relative="1" as="geometry">
            <mxPoint x="-9.939347700639246" y="-170.484774502841" as="targetPoint" />
          </mxGeometry>
        </mxCell>
        <mxCell id="uPy3z9FFIgUIdOMCj2ZU-13" value="Mux" style="shadow=0;dashed=0;align=center;html=1;strokeWidth=1;shape=mxgraph.electrical.abstract.mux2;whiteSpace=wrap;" parent="1" vertex="1">
          <mxGeometry x="18" y="-106" width="80" height="120" as="geometry" />
        </mxCell>
        <mxCell id="uPy3z9FFIgUIdOMCj2ZU-14" style="edgeStyle=orthogonalEdgeStyle;rounded=0;orthogonalLoop=1;jettySize=auto;html=1;entryX=0;entryY=0.65;entryDx=0;entryDy=3;entryPerimeter=0;endArrow=none;endFill=0;" parent="1" source="Ym4xe4FT287uwdKxdX6L-27" target="uPy3z9FFIgUIdOMCj2ZU-13" edge="1">
          <mxGeometry relative="1" as="geometry" />
        </mxCell>
        <mxCell id="uPy3z9FFIgUIdOMCj2ZU-23" value="Mux" style="shadow=0;dashed=0;align=center;html=1;strokeWidth=1;shape=mxgraph.electrical.abstract.mux2;whiteSpace=wrap;" parent="1" vertex="1">
          <mxGeometry x="276" y="-117.00000000000011" width="80" height="120" as="geometry" />
        </mxCell>
        <mxCell id="uPy3z9FFIgUIdOMCj2ZU-32" style="edgeStyle=orthogonalEdgeStyle;rounded=0;orthogonalLoop=1;jettySize=auto;html=1;exitX=1;exitY=0.5;exitDx=0;exitDy=-5;exitPerimeter=0;entryX=0;entryY=0.21666666666666667;entryDx=0;entryDy=3;entryPerimeter=0;endArrow=none;endFill=0;" parent="1" source="uPy3z9FFIgUIdOMCj2ZU-23" target="Ym4xe4FT287uwdKxdX6L-8" edge="1">
          <mxGeometry relative="1" as="geometry" />
        </mxCell>
        <mxCell id="uPy3z9FFIgUIdOMCj2ZU-44" style="edgeStyle=orthogonalEdgeStyle;rounded=0;orthogonalLoop=1;jettySize=auto;html=1;exitX=1;exitY=0.5;exitDx=0;exitDy=-5;exitPerimeter=0;entryX=0;entryY=0.65;entryDx=0;entryDy=3;entryPerimeter=0;endArrow=none;endFill=0;jumpStyle=arc;" parent="1" source="uPy3z9FFIgUIdOMCj2ZU-13" target="uPy3z9FFIgUIdOMCj2ZU-23" edge="1">
          <mxGeometry relative="1" as="geometry" />
        </mxCell>
        <mxCell id="uPy3z9FFIgUIdOMCj2ZU-52" style="edgeStyle=orthogonalEdgeStyle;rounded=0;orthogonalLoop=1;jettySize=auto;html=1;exitX=1;exitY=0.5;exitDx=0;exitDy=-5;exitPerimeter=0;entryX=0;entryY=0.21666666666666667;entryDx=0;entryDy=3;entryPerimeter=0;endArrow=none;endFill=0;jumpStyle=arc;jumpSize=16;" parent="1" source="Ym4xe4FT287uwdKxdX6L-17" target="uPy3z9FFIgUIdOMCj2ZU-23" edge="1">
          <mxGeometry relative="1" as="geometry">
            <Array as="points">
              <mxPoint x="156" y="310" />
              <mxPoint x="156" y="-88" />
            </Array>
          </mxGeometry>
        </mxCell>
        <mxCell id="uPy3z9FFIgUIdOMCj2ZU-35" value="&lt;font style=&quot;font-size: 16px;&quot;&gt;&lt;b&gt;Down&lt;/b&gt;&lt;/font&gt;" style="text;html=1;align=center;verticalAlign=middle;resizable=0;points=[];autosize=1;strokeColor=none;fillColor=none;" parent="1" vertex="1">
          <mxGeometry x="285.5" y="50" width="62" height="31" as="geometry" />
        </mxCell>
        <mxCell id="uPy3z9FFIgUIdOMCj2ZU-61" value="" style="shape=or;whiteSpace=wrap;html=1;direction=north;" parent="1" vertex="1">
          <mxGeometry x="28" y="428" width="60" height="36" as="geometry" />
        </mxCell>
        <mxCell id="uPy3z9FFIgUIdOMCj2ZU-62" value="&lt;font style=&quot;font-size: 16px;&quot;&gt;&lt;b&gt;Up&lt;/b&gt;&lt;/font&gt;" style="text;html=1;align=center;verticalAlign=middle;resizable=0;points=[];autosize=1;strokeColor=none;fillColor=none;" parent="1" vertex="1">
          <mxGeometry y="533.5" width="39" height="31" as="geometry" />
        </mxCell>
        <mxCell id="uPy3z9FFIgUIdOMCj2ZU-93" style="edgeStyle=orthogonalEdgeStyle;rounded=0;orthogonalLoop=1;jettySize=auto;html=1;exitX=0;exitY=0.5;exitDx=0;exitDy=0;exitPerimeter=0;endArrow=none;endFill=0;" parent="1" source="uPy3z9FFIgUIdOMCj2ZU-63" edge="1">
          <mxGeometry relative="1" as="geometry">
            <mxPoint x="765" y="458" as="targetPoint" />
            <mxPoint x="72" y="555.4999999999999" as="sourcePoint" />
            <Array as="points">
              <mxPoint x="73" y="576" />
              <mxPoint x="765" y="576" />
            </Array>
          </mxGeometry>
        </mxCell>
        <mxCell id="uPy3z9FFIgUIdOMCj2ZU-63" value="" style="verticalLabelPosition=bottom;shadow=0;dashed=0;align=center;html=1;verticalAlign=top;shape=mxgraph.electrical.logic_gates.inverter_2;direction=north;" parent="1" vertex="1">
          <mxGeometry x="60" y="506.5" width="25" height="46" as="geometry" />
        </mxCell>
        <mxCell id="uPy3z9FFIgUIdOMCj2ZU-66" style="edgeStyle=orthogonalEdgeStyle;rounded=0;orthogonalLoop=1;jettySize=auto;html=1;entryX=0;entryY=0.25;entryDx=0;entryDy=0;entryPerimeter=0;endArrow=none;endFill=0;" parent="1" source="uPy3z9FFIgUIdOMCj2ZU-62" target="uPy3z9FFIgUIdOMCj2ZU-61" edge="1">
          <mxGeometry relative="1" as="geometry" />
        </mxCell>
        <mxCell id="uPy3z9FFIgUIdOMCj2ZU-67" style="edgeStyle=orthogonalEdgeStyle;rounded=0;orthogonalLoop=1;jettySize=auto;html=1;exitX=1;exitY=0.5;exitDx=0;exitDy=0;exitPerimeter=0;entryX=0;entryY=0.75;entryDx=0;entryDy=0;entryPerimeter=0;endArrow=none;endFill=0;" parent="1" source="uPy3z9FFIgUIdOMCj2ZU-63" target="uPy3z9FFIgUIdOMCj2ZU-61" edge="1">
          <mxGeometry relative="1" as="geometry" />
        </mxCell>
        <mxCell id="uPy3z9FFIgUIdOMCj2ZU-68" style="edgeStyle=orthogonalEdgeStyle;rounded=0;orthogonalLoop=1;jettySize=auto;html=1;entryX=0.375;entryY=1;entryDx=10;entryDy=0;entryPerimeter=0;endArrow=none;endFill=0;" parent="1" source="uPy3z9FFIgUIdOMCj2ZU-61" target="Ym4xe4FT287uwdKxdX6L-17" edge="1">
          <mxGeometry relative="1" as="geometry" />
        </mxCell>
        <mxCell id="uPy3z9FFIgUIdOMCj2ZU-69" value="" style="shape=or;whiteSpace=wrap;html=1;direction=north;" parent="1" vertex="1">
          <mxGeometry x="28" y="56.5" width="60" height="36" as="geometry" />
        </mxCell>
        <mxCell id="uPy3z9FFIgUIdOMCj2ZU-70" value="&lt;font style=&quot;font-size: 16px;&quot;&gt;&lt;b&gt;Down&lt;/b&gt;&lt;/font&gt;" style="text;html=1;align=center;verticalAlign=middle;resizable=0;points=[];autosize=1;strokeColor=none;fillColor=none;" parent="1" vertex="1">
          <mxGeometry x="-4" y="156.5" width="62" height="31" as="geometry" />
        </mxCell>
        <mxCell id="uPy3z9FFIgUIdOMCj2ZU-71" value="" style="verticalLabelPosition=bottom;shadow=0;dashed=0;align=center;html=1;verticalAlign=top;shape=mxgraph.electrical.logic_gates.inverter_2;direction=north;" parent="1" vertex="1">
          <mxGeometry x="61" y="131" width="25" height="46" as="geometry" />
        </mxCell>
        <mxCell id="uPy3z9FFIgUIdOMCj2ZU-75" style="edgeStyle=orthogonalEdgeStyle;rounded=0;orthogonalLoop=1;jettySize=auto;html=1;exitX=1;exitY=0.5;exitDx=0;exitDy=0;exitPerimeter=0;entryX=0;entryY=0.75;entryDx=0;entryDy=0;entryPerimeter=0;endArrow=none;endFill=0;" parent="1" source="uPy3z9FFIgUIdOMCj2ZU-71" target="uPy3z9FFIgUIdOMCj2ZU-69" edge="1">
          <mxGeometry relative="1" as="geometry" />
        </mxCell>
        <mxCell id="uPy3z9FFIgUIdOMCj2ZU-76" style="edgeStyle=orthogonalEdgeStyle;rounded=0;orthogonalLoop=1;jettySize=auto;html=1;entryX=0.375;entryY=1;entryDx=10;entryDy=0;entryPerimeter=0;endArrow=none;endFill=0;" parent="1" source="uPy3z9FFIgUIdOMCj2ZU-69" target="uPy3z9FFIgUIdOMCj2ZU-13" edge="1">
          <mxGeometry relative="1" as="geometry" />
        </mxCell>
        <mxCell id="uPy3z9FFIgUIdOMCj2ZU-77" style="edgeStyle=orthogonalEdgeStyle;rounded=0;orthogonalLoop=1;jettySize=auto;html=1;entryX=0;entryY=0.25;entryDx=0;entryDy=0;entryPerimeter=0;endArrow=none;endFill=0;" parent="1" source="uPy3z9FFIgUIdOMCj2ZU-70" target="uPy3z9FFIgUIdOMCj2ZU-69" edge="1">
          <mxGeometry relative="1" as="geometry" />
        </mxCell>
        <mxCell id="uPy3z9FFIgUIdOMCj2ZU-82" style="edgeStyle=orthogonalEdgeStyle;rounded=0;orthogonalLoop=1;jettySize=auto;html=1;entryX=0.375;entryY=1;entryDx=10;entryDy=0;entryPerimeter=0;endArrow=none;endFill=0;" parent="1" source="uPy3z9FFIgUIdOMCj2ZU-35" target="uPy3z9FFIgUIdOMCj2ZU-23" edge="1">
          <mxGeometry relative="1" as="geometry" />
        </mxCell>
        <mxCell id="uPy3z9FFIgUIdOMCj2ZU-84" value="" style="edgeStyle=orthogonalEdgeStyle;rounded=0;orthogonalLoop=1;jettySize=auto;html=1;endArrow=none;endFill=0;" parent="1" source="uPy3z9FFIgUIdOMCj2ZU-83" target="Ym4xe4FT287uwdKxdX6L-27" edge="1">
          <mxGeometry relative="1" as="geometry" />
        </mxCell>
        <mxCell id="uPy3z9FFIgUIdOMCj2ZU-83" value="&lt;font style=&quot;font-size: 16px;&quot;&gt;1&lt;/font&gt;" style="text;html=1;align=center;verticalAlign=middle;resizable=0;points=[];autosize=1;strokeColor=none;fillColor=none;" parent="1" vertex="1">
          <mxGeometry x="-287" y="-39" width="27" height="31" as="geometry" />
        </mxCell>
        <mxCell id="uPy3z9FFIgUIdOMCj2ZU-86" value="" style="edgeStyle=orthogonalEdgeStyle;rounded=0;orthogonalLoop=1;jettySize=auto;html=1;endArrow=none;endFill=0;" parent="1" source="uPy3z9FFIgUIdOMCj2ZU-85" target="Ym4xe4FT287uwdKxdX6L-28" edge="1">
          <mxGeometry relative="1" as="geometry" />
        </mxCell>
        <mxCell id="uPy3z9FFIgUIdOMCj2ZU-85" value="&lt;font style=&quot;font-size: 16px;&quot;&gt;1&lt;/font&gt;" style="text;html=1;align=center;verticalAlign=middle;resizable=0;points=[];autosize=1;strokeColor=none;fillColor=none;" parent="1" vertex="1">
          <mxGeometry x="-282" y="327" width="27" height="31" as="geometry" />
        </mxCell>
        <mxCell id="uPy3z9FFIgUIdOMCj2ZU-88" style="edgeStyle=orthogonalEdgeStyle;rounded=0;orthogonalLoop=1;jettySize=auto;html=1;exitX=0;exitY=0.5;exitDx=0;exitDy=0;exitPerimeter=0;endArrow=none;endFill=0;" parent="1" source="uPy3z9FFIgUIdOMCj2ZU-87" edge="1">
          <mxGeometry relative="1" as="geometry">
            <mxPoint x="849" y="-78" as="targetPoint" />
          </mxGeometry>
        </mxCell>
        <mxCell id="uPy3z9FFIgUIdOMCj2ZU-87" value="" style="shape=or;whiteSpace=wrap;html=1;direction=south;" parent="1" vertex="1">
          <mxGeometry x="724.5" y="252" width="80" height="60" as="geometry" />
        </mxCell>
        <mxCell id="uPy3z9FFIgUIdOMCj2ZU-89" value="&lt;font style=&quot;font-size: 16px;&quot;&gt;&lt;b&gt;High&lt;/b&gt;&lt;/font&gt;" style="text;html=1;align=center;verticalAlign=middle;resizable=0;points=[];autosize=1;strokeColor=none;fillColor=none;" parent="1" vertex="1">
          <mxGeometry x="1035" y="442" width="54" height="31" as="geometry" />
        </mxCell>
        <mxCell id="uPy3z9FFIgUIdOMCj2ZU-90" style="edgeStyle=orthogonalEdgeStyle;rounded=0;orthogonalLoop=1;jettySize=auto;html=1;entryX=1;entryY=0.5;entryDx=0;entryDy=0;entryPerimeter=0;endArrow=none;endFill=0;" parent="1" source="uPy3z9FFIgUIdOMCj2ZU-89" target="uPy3z9FFIgUIdOMCj2ZU-87" edge="1">
          <mxGeometry relative="1" as="geometry" />
        </mxCell>
        <mxCell id="uPy3z9FFIgUIdOMCj2ZU-108" style="edgeStyle=orthogonalEdgeStyle;rounded=0;orthogonalLoop=1;jettySize=auto;html=1;endArrow=none;endFill=0;exitX=0.25;exitY=0.5;exitDx=0;exitDy=0;exitPerimeter=0;" parent="1" source="uPy3z9FFIgUIdOMCj2ZU-106" edge="1">
          <mxGeometry relative="1" as="geometry">
            <mxPoint x="901.1961203182445" y="-79.15683880974257" as="targetPoint" />
          </mxGeometry>
        </mxCell>
        <mxCell id="uPy3z9FFIgUIdOMCj2ZU-106" value="" style="shape=xor;whiteSpace=wrap;html=1;direction=south;" parent="1" vertex="1">
          <mxGeometry x="901" y="252" width="80" height="60" as="geometry" />
        </mxCell>
        <mxCell id="uPy3z9FFIgUIdOMCj2ZU-112" style="edgeStyle=orthogonalEdgeStyle;rounded=0;orthogonalLoop=1;jettySize=auto;html=1;entryX=0.018;entryY=0.531;entryDx=0;entryDy=0;entryPerimeter=0;endArrow=none;endFill=0;exitX=0.5;exitY=1;exitDx=0;exitDy=0;" parent="1" source="uPy3z9FFIgUIdOMCj2ZU-107" target="uPy3z9FFIgUIdOMCj2ZU-110" edge="1">
          <mxGeometry relative="1" as="geometry" />
        </mxCell>
        <mxCell id="uPy3z9FFIgUIdOMCj2ZU-107" value="" style="ellipse;whiteSpace=wrap;html=1;aspect=fixed;" parent="1" vertex="1">
          <mxGeometry x="935" y="312" width="12" height="12" as="geometry" />
        </mxCell>
        <mxCell id="uPy3z9FFIgUIdOMCj2ZU-110" value="&lt;font style=&quot;font-size: 16px;&quot;&gt;&lt;b&gt;Low&lt;/b&gt;&lt;/font&gt;" style="text;html=1;align=center;verticalAlign=middle;resizable=0;points=[];autosize=1;strokeColor=none;fillColor=none;" parent="1" vertex="1">
          <mxGeometry x="1039" y="358" width="50" height="31" as="geometry" />
        </mxCell>
        <mxCell id="uPy3z9FFIgUIdOMCj2ZU-114" style="edgeStyle=orthogonalEdgeStyle;rounded=0;orthogonalLoop=1;jettySize=auto;html=1;exitX=0;exitY=0.5;exitDx=0;exitDy=0;exitPerimeter=0;endArrow=none;endFill=0;jumpStyle=arc;jumpSize=16;" parent="1" source="uPy3z9FFIgUIdOMCj2ZU-71" edge="1">
          <mxGeometry relative="1" as="geometry">
            <mxPoint x="940" y="376" as="targetPoint" />
            <Array as="points">
              <mxPoint x="74" y="212" />
              <mxPoint x="241" y="212" />
              <mxPoint x="241" y="376" />
            </Array>
          </mxGeometry>
        </mxCell>
        <mxCell id="uPy3z9FFIgUIdOMCj2ZU-53" style="edgeStyle=orthogonalEdgeStyle;rounded=0;orthogonalLoop=1;jettySize=auto;html=1;exitX=0;exitY=0.21666666666666667;exitDx=0;exitDy=3;exitPerimeter=0;endArrow=none;endFill=0;jumpStyle=arc;jumpSize=16;" parent="1" source="Ym4xe4FT287uwdKxdX6L-17" edge="1">
          <mxGeometry relative="1" as="geometry">
            <mxPoint x="-63" y="-172" as="targetPoint" />
          </mxGeometry>
        </mxCell>
        <mxCell id="ZvFuY1kTVgALxDAI7tLK-2" value="&lt;b&gt;CLK&lt;/b&gt;" style="text;html=1;align=center;verticalAlign=middle;resizable=0;points=[];autosize=1;strokeColor=none;fillColor=none;fontSize=16;" vertex="1" parent="1">
          <mxGeometry x="626.5" y="-14.5" width="51" height="31" as="geometry" />
        </mxCell>
      </root>
    </mxGraphModel>
  </diagram>
  <diagram id="p5pVUPGIH6F78VXu6Z0O" name="ALU_16B">
    <mxGraphModel dx="2944" dy="2554" grid="0" gridSize="10" guides="1" tooltips="1" connect="1" arrows="1" fold="1" page="0" pageScale="1" pageWidth="827" pageHeight="1169" math="0" shadow="0">
      <root>
        <mxCell id="0" />
        <mxCell id="1" parent="0" />
        <mxCell id="dI03uZt3L8Q1S9gdigus-5" style="edgeStyle=none;curved=1;rounded=0;orthogonalLoop=1;jettySize=auto;html=1;fontSize=12;startSize=8;endSize=8;endArrow=none;endFill=0;" edge="1" parent="1" source="qCPQK1EpVbC_cSyR7Dvy-1">
          <mxGeometry relative="1" as="geometry">
            <mxPoint x="1078.957015498992" y="182.5" as="targetPoint" />
          </mxGeometry>
        </mxCell>
        <mxCell id="qCPQK1EpVbC_cSyR7Dvy-1" value="" style="rounded=0;whiteSpace=wrap;html=1;" vertex="1" parent="1">
          <mxGeometry x="901.5" y="118" width="96" height="129" as="geometry" />
        </mxCell>
        <mxCell id="qCPQK1EpVbC_cSyR7Dvy-2" value="" style="triangle;whiteSpace=wrap;html=1;" vertex="1" parent="1">
          <mxGeometry x="901.5" y="200" width="27" height="35" as="geometry" />
        </mxCell>
        <mxCell id="qCPQK1EpVbC_cSyR7Dvy-3" value="D" style="text;html=1;align=center;verticalAlign=middle;resizable=0;points=[];autosize=1;strokeColor=none;fillColor=none;fontSize=16;" vertex="1" parent="1">
          <mxGeometry x="900" y="123" width="30" height="31" as="geometry" />
        </mxCell>
        <mxCell id="qCPQK1EpVbC_cSyR7Dvy-4" value="Q" style="text;html=1;align=center;verticalAlign=middle;resizable=0;points=[];autosize=1;strokeColor=none;fillColor=none;fontSize=16;" vertex="1" parent="1">
          <mxGeometry x="965.5" y="123" width="30" height="31" as="geometry" />
        </mxCell>
        <mxCell id="dI03uZt3L8Q1S9gdigus-2" style="edgeStyle=none;curved=0;rounded=0;orthogonalLoop=1;jettySize=auto;html=1;exitX=1;exitY=0.5;exitDx=0;exitDy=-5;exitPerimeter=0;entryX=0.031;entryY=0.563;entryDx=0;entryDy=0;entryPerimeter=0;fontSize=12;startSize=8;endSize=8;endArrow=none;endFill=0;" edge="1" parent="1" target="qCPQK1EpVbC_cSyR7Dvy-3">
          <mxGeometry relative="1" as="geometry">
            <mxPoint x="718" y="140.5" as="sourcePoint" />
            <Array as="points">
              <mxPoint x="732" y="140" />
            </Array>
          </mxGeometry>
        </mxCell>
        <mxCell id="dI03uZt3L8Q1S9gdigus-4" style="edgeStyle=none;curved=1;rounded=0;orthogonalLoop=1;jettySize=auto;html=1;entryX=0;entryY=0.5;entryDx=0;entryDy=0;fontSize=12;startSize=8;endSize=8;endArrow=none;endFill=0;" edge="1" parent="1" source="dI03uZt3L8Q1S9gdigus-3" target="qCPQK1EpVbC_cSyR7Dvy-2">
          <mxGeometry relative="1" as="geometry" />
        </mxCell>
        <mxCell id="dI03uZt3L8Q1S9gdigus-3" value="&lt;b&gt;CLK&lt;/b&gt;" style="text;html=1;align=center;verticalAlign=middle;resizable=0;points=[];autosize=1;strokeColor=none;fillColor=none;fontSize=16;" vertex="1" parent="1">
          <mxGeometry x="805" y="202" width="51" height="31" as="geometry" />
        </mxCell>
        <mxCell id="dI03uZt3L8Q1S9gdigus-6" value="&lt;b&gt;ALU_OUT&lt;/b&gt;" style="text;html=1;align=center;verticalAlign=middle;resizable=0;points=[];autosize=1;strokeColor=none;fillColor=none;fontSize=16;" vertex="1" parent="1">
          <mxGeometry x="1083" y="167" width="94" height="31" as="geometry" />
        </mxCell>
        <mxCell id="dI03uZt3L8Q1S9gdigus-264" style="edgeStyle=none;curved=0;rounded=0;orthogonalLoop=1;jettySize=auto;html=1;fontSize=12;startSize=8;endSize=8;endArrow=none;endFill=0;" edge="1" parent="1" source="dI03uZt3L8Q1S9gdigus-12">
          <mxGeometry relative="1" as="geometry">
            <mxPoint x="720.6913881655091" y="140.30861183449065" as="targetPoint" />
            <Array as="points">
              <mxPoint x="661" y="111" />
              <mxPoint x="661" y="140" />
            </Array>
          </mxGeometry>
        </mxCell>
        <mxCell id="dI03uZt3L8Q1S9gdigus-12" value="" style="group;movable=1;resizable=1;rotatable=1;deletable=1;editable=1;locked=0;connectable=1;points=[[0,0.06,0,0,0],[0,0.12,0,0,0],[0,0.18,0,0,0],[0,0.24,0,0,0],[0,0.29,0,0,0],[0,0.35,0,0,0],[0,0.41,0,0,0],[0,0.47,0,0,0],[0,0.53,0,0,0],[0,0.59,0,0,0],[0,0.65,0,0,0],[0,0.71,0,0,0],[0,0.76,0,0,0],[0,0.82,0,0,0],[0,0.88,0,0,0],[0,0.94,0,0,0],[0.5,1,0,0,0]];" vertex="1" connectable="0" parent="1">
          <mxGeometry x="517" y="-24" width="103" height="264" as="geometry" />
        </mxCell>
        <mxCell id="dI03uZt3L8Q1S9gdigus-8" value="" style="endArrow=none;html=1;rounded=0;fontSize=12;startSize=8;endSize=8;curved=1;" edge="1" parent="dI03uZt3L8Q1S9gdigus-12">
          <mxGeometry width="50" height="50" relative="1" as="geometry">
            <mxPoint as="sourcePoint" />
            <mxPoint x="103.00000000000001" y="42.45226130653265" as="targetPoint" />
          </mxGeometry>
        </mxCell>
        <mxCell id="dI03uZt3L8Q1S9gdigus-9" value="" style="endArrow=none;html=1;rounded=0;fontSize=12;startSize=8;endSize=8;curved=1;" edge="1" parent="dI03uZt3L8Q1S9gdigus-12">
          <mxGeometry width="50" height="50" relative="1" as="geometry">
            <mxPoint x="1.4109589041095896" y="263.99999999999994" as="sourcePoint" />
            <mxPoint x="1.4109589041095896" as="targetPoint" />
          </mxGeometry>
        </mxCell>
        <mxCell id="dI03uZt3L8Q1S9gdigus-10" value="" style="endArrow=none;html=1;rounded=0;fontSize=12;startSize=8;endSize=8;curved=1;" edge="1" parent="dI03uZt3L8Q1S9gdigus-12">
          <mxGeometry width="50" height="50" relative="1" as="geometry">
            <mxPoint x="1.4109589041095896" y="262.6733668341714" as="sourcePoint" />
            <mxPoint x="103.00000000000001" y="220.22110552763874" as="targetPoint" />
          </mxGeometry>
        </mxCell>
        <mxCell id="dI03uZt3L8Q1S9gdigus-11" value="" style="endArrow=none;html=1;rounded=0;fontSize=12;startSize=8;endSize=8;curved=1;" edge="1" parent="dI03uZt3L8Q1S9gdigus-12">
          <mxGeometry width="50" height="50" relative="1" as="geometry">
            <mxPoint x="103.00000000000001" y="221.54773869346727" as="sourcePoint" />
            <mxPoint x="103.00000000000001" y="42.45226130653265" as="targetPoint" />
          </mxGeometry>
        </mxCell>
        <mxCell id="dI03uZt3L8Q1S9gdigus-263" value="MUX&lt;div&gt;16 to 1&lt;/div&gt;" style="text;html=1;align=center;verticalAlign=middle;resizable=0;points=[];autosize=1;strokeColor=none;fillColor=none;fontSize=16;" vertex="1" parent="dI03uZt3L8Q1S9gdigus-12">
          <mxGeometry x="18" y="112" width="67" height="50" as="geometry" />
        </mxCell>
        <mxCell id="dI03uZt3L8Q1S9gdigus-31" value="Multiplier" style="rounded=0;whiteSpace=wrap;html=1;" vertex="1" parent="1">
          <mxGeometry x="-17" y="-278" width="71" height="32" as="geometry" />
        </mxCell>
        <mxCell id="dI03uZt3L8Q1S9gdigus-32" value="Divider" style="rounded=0;whiteSpace=wrap;html=1;" vertex="1" parent="1">
          <mxGeometry x="-17" y="-206" width="71" height="32" as="geometry" />
        </mxCell>
        <mxCell id="dI03uZt3L8Q1S9gdigus-38" value="Comparator" style="rounded=0;whiteSpace=wrap;html=1;" vertex="1" parent="1">
          <mxGeometry x="-21" y="488" width="71" height="32" as="geometry" />
        </mxCell>
        <mxCell id="dI03uZt3L8Q1S9gdigus-116" value="" style="group" vertex="1" connectable="0" parent="1">
          <mxGeometry x="-19" y="694" width="290" height="32" as="geometry" />
        </mxCell>
        <mxCell id="dI03uZt3L8Q1S9gdigus-80" value="" style="rounded=0;whiteSpace=wrap;html=1;points=[[0.06,0,0,0,0],[0.06,1,0,0,0],[0.13,0,0,0,0],[0.13,1,0,0,0],[0.19,0,0,0,0],[0.19,1,0,0,0],[0.25,0,0,0,0],[0.25,1,0,0,0],[0.31,0,0,0,0],[0.31,1,0,0,0],[0.38,0,0,0,0],[0.38,1,0,0,0],[0.44,0,0,0,0],[0.44,1,0,0,0],[0.5,0,0,0,0],[0.5,1,0,0,0],[0.56,0,0,0,0],[0.56,1,0,0,0],[0.63,0,0,0,0],[0.63,1,0,0,0],[0.69,0,0,0,0],[0.69,1,0,0,0],[0.75,0,0,0,0],[0.75,1,0,0,0],[0.81,0,0,0,0],[0.81,1,0,0,0],[0.88,0,0,0,0],[0.88,1,0,0,0],[0.94,0,0,0,0],[0.94,1,0,0,0]];" vertex="1" parent="dI03uZt3L8Q1S9gdigus-116">
          <mxGeometry x="6" width="284" height="32" as="geometry" />
        </mxCell>
        <mxCell id="dI03uZt3L8Q1S9gdigus-82" value="" style="endArrow=none;html=1;rounded=0;fontSize=12;startSize=8;endSize=8;curved=1;exitX=0.06;exitY=0;exitDx=0;exitDy=0;exitPerimeter=0;entryX=0.06;entryY=1;entryDx=0;entryDy=0;entryPerimeter=0;" edge="1" parent="dI03uZt3L8Q1S9gdigus-116" source="dI03uZt3L8Q1S9gdigus-80" target="dI03uZt3L8Q1S9gdigus-80">
          <mxGeometry width="50" height="50" relative="1" as="geometry">
            <mxPoint x="16" y="81" as="sourcePoint" />
            <mxPoint x="255" y="81" as="targetPoint" />
          </mxGeometry>
        </mxCell>
        <mxCell id="dI03uZt3L8Q1S9gdigus-83" value="" style="endArrow=none;html=1;rounded=0;fontSize=12;startSize=8;endSize=8;curved=1;exitX=0.13;exitY=0;exitDx=0;exitDy=0;exitPerimeter=0;entryX=0.13;entryY=1;entryDx=0;entryDy=0;entryPerimeter=0;" edge="1" parent="dI03uZt3L8Q1S9gdigus-116" source="dI03uZt3L8Q1S9gdigus-80" target="dI03uZt3L8Q1S9gdigus-80">
          <mxGeometry width="50" height="50" relative="1" as="geometry">
            <mxPoint x="26" y="91" as="sourcePoint" />
            <mxPoint x="265" y="91" as="targetPoint" />
          </mxGeometry>
        </mxCell>
        <mxCell id="dI03uZt3L8Q1S9gdigus-84" value="" style="endArrow=none;html=1;rounded=0;fontSize=12;startSize=8;endSize=8;curved=1;exitX=0.19;exitY=0;exitDx=0;exitDy=0;exitPerimeter=0;entryX=0.19;entryY=1;entryDx=0;entryDy=0;entryPerimeter=0;" edge="1" parent="dI03uZt3L8Q1S9gdigus-116" source="dI03uZt3L8Q1S9gdigus-80" target="dI03uZt3L8Q1S9gdigus-80">
          <mxGeometry width="50" height="50" relative="1" as="geometry">
            <mxPoint x="36" y="101" as="sourcePoint" />
            <mxPoint x="275" y="101" as="targetPoint" />
          </mxGeometry>
        </mxCell>
        <mxCell id="dI03uZt3L8Q1S9gdigus-85" value="" style="endArrow=none;html=1;rounded=0;fontSize=12;startSize=8;endSize=8;curved=1;exitX=0.25;exitY=0;exitDx=0;exitDy=0;exitPerimeter=0;entryX=0.25;entryY=1;entryDx=0;entryDy=0;entryPerimeter=0;" edge="1" parent="dI03uZt3L8Q1S9gdigus-116" source="dI03uZt3L8Q1S9gdigus-80" target="dI03uZt3L8Q1S9gdigus-80">
          <mxGeometry width="50" height="50" relative="1" as="geometry">
            <mxPoint x="46" y="111" as="sourcePoint" />
            <mxPoint x="285" y="111" as="targetPoint" />
          </mxGeometry>
        </mxCell>
        <mxCell id="dI03uZt3L8Q1S9gdigus-86" value="" style="endArrow=none;html=1;rounded=0;fontSize=12;startSize=8;endSize=8;curved=1;exitX=0.31;exitY=0;exitDx=0;exitDy=0;exitPerimeter=0;entryX=0.31;entryY=1;entryDx=0;entryDy=0;entryPerimeter=0;" edge="1" parent="dI03uZt3L8Q1S9gdigus-116" source="dI03uZt3L8Q1S9gdigus-80" target="dI03uZt3L8Q1S9gdigus-80">
          <mxGeometry width="50" height="50" relative="1" as="geometry">
            <mxPoint x="56" y="121" as="sourcePoint" />
            <mxPoint x="295" y="121" as="targetPoint" />
          </mxGeometry>
        </mxCell>
        <mxCell id="dI03uZt3L8Q1S9gdigus-87" value="" style="endArrow=none;html=1;rounded=0;fontSize=12;startSize=8;endSize=8;curved=1;exitX=0.38;exitY=0;exitDx=0;exitDy=0;exitPerimeter=0;entryX=0.38;entryY=1;entryDx=0;entryDy=0;entryPerimeter=0;" edge="1" parent="dI03uZt3L8Q1S9gdigus-116" source="dI03uZt3L8Q1S9gdigus-80" target="dI03uZt3L8Q1S9gdigus-80">
          <mxGeometry width="50" height="50" relative="1" as="geometry">
            <mxPoint x="66" y="131" as="sourcePoint" />
            <mxPoint x="305" y="131" as="targetPoint" />
          </mxGeometry>
        </mxCell>
        <mxCell id="dI03uZt3L8Q1S9gdigus-88" value="" style="endArrow=none;html=1;rounded=0;fontSize=12;startSize=8;endSize=8;curved=1;exitX=0.44;exitY=0;exitDx=0;exitDy=0;exitPerimeter=0;entryX=0.44;entryY=1;entryDx=0;entryDy=0;entryPerimeter=0;" edge="1" parent="dI03uZt3L8Q1S9gdigus-116" source="dI03uZt3L8Q1S9gdigus-80" target="dI03uZt3L8Q1S9gdigus-80">
          <mxGeometry width="50" height="50" relative="1" as="geometry">
            <mxPoint x="76" y="141" as="sourcePoint" />
            <mxPoint x="315" y="141" as="targetPoint" />
          </mxGeometry>
        </mxCell>
        <mxCell id="dI03uZt3L8Q1S9gdigus-89" value="" style="endArrow=none;html=1;rounded=0;fontSize=12;startSize=8;endSize=8;curved=1;exitX=0.5;exitY=0;exitDx=0;exitDy=0;exitPerimeter=0;entryX=0.5;entryY=1;entryDx=0;entryDy=0;entryPerimeter=0;" edge="1" parent="dI03uZt3L8Q1S9gdigus-116" source="dI03uZt3L8Q1S9gdigus-80" target="dI03uZt3L8Q1S9gdigus-80">
          <mxGeometry width="50" height="50" relative="1" as="geometry">
            <mxPoint x="86" y="151" as="sourcePoint" />
            <mxPoint x="325" y="151" as="targetPoint" />
          </mxGeometry>
        </mxCell>
        <mxCell id="dI03uZt3L8Q1S9gdigus-90" value="" style="endArrow=none;html=1;rounded=0;fontSize=12;startSize=8;endSize=8;curved=1;exitX=0.56;exitY=0;exitDx=0;exitDy=0;exitPerimeter=0;entryX=0.56;entryY=1;entryDx=0;entryDy=0;entryPerimeter=0;" edge="1" parent="dI03uZt3L8Q1S9gdigus-116" source="dI03uZt3L8Q1S9gdigus-80" target="dI03uZt3L8Q1S9gdigus-80">
          <mxGeometry width="50" height="50" relative="1" as="geometry">
            <mxPoint x="96" y="161" as="sourcePoint" />
            <mxPoint x="335" y="161" as="targetPoint" />
          </mxGeometry>
        </mxCell>
        <mxCell id="dI03uZt3L8Q1S9gdigus-91" value="" style="endArrow=none;html=1;rounded=0;fontSize=12;startSize=8;endSize=8;curved=1;exitX=0.63;exitY=0;exitDx=0;exitDy=0;exitPerimeter=0;entryX=0.63;entryY=1;entryDx=0;entryDy=0;entryPerimeter=0;" edge="1" parent="dI03uZt3L8Q1S9gdigus-116" source="dI03uZt3L8Q1S9gdigus-80" target="dI03uZt3L8Q1S9gdigus-80">
          <mxGeometry width="50" height="50" relative="1" as="geometry">
            <mxPoint x="106" y="171" as="sourcePoint" />
            <mxPoint x="345" y="171" as="targetPoint" />
          </mxGeometry>
        </mxCell>
        <mxCell id="dI03uZt3L8Q1S9gdigus-92" value="" style="endArrow=none;html=1;rounded=0;fontSize=12;startSize=8;endSize=8;curved=1;exitX=0.69;exitY=0;exitDx=0;exitDy=0;exitPerimeter=0;entryX=0.69;entryY=1;entryDx=0;entryDy=0;entryPerimeter=0;" edge="1" parent="dI03uZt3L8Q1S9gdigus-116" source="dI03uZt3L8Q1S9gdigus-80" target="dI03uZt3L8Q1S9gdigus-80">
          <mxGeometry width="50" height="50" relative="1" as="geometry">
            <mxPoint x="116" y="181" as="sourcePoint" />
            <mxPoint x="355" y="181" as="targetPoint" />
          </mxGeometry>
        </mxCell>
        <mxCell id="dI03uZt3L8Q1S9gdigus-93" value="" style="endArrow=none;html=1;rounded=0;fontSize=12;startSize=8;endSize=8;curved=1;exitX=0.75;exitY=0;exitDx=0;exitDy=0;exitPerimeter=0;entryX=0.75;entryY=1;entryDx=0;entryDy=0;entryPerimeter=0;" edge="1" parent="dI03uZt3L8Q1S9gdigus-116" source="dI03uZt3L8Q1S9gdigus-80" target="dI03uZt3L8Q1S9gdigus-80">
          <mxGeometry width="50" height="50" relative="1" as="geometry">
            <mxPoint x="126" y="191" as="sourcePoint" />
            <mxPoint x="365" y="191" as="targetPoint" />
          </mxGeometry>
        </mxCell>
        <mxCell id="dI03uZt3L8Q1S9gdigus-94" value="" style="endArrow=none;html=1;rounded=0;fontSize=12;startSize=8;endSize=8;curved=1;exitX=0.81;exitY=0;exitDx=0;exitDy=0;exitPerimeter=0;entryX=0.81;entryY=1;entryDx=0;entryDy=0;entryPerimeter=0;" edge="1" parent="dI03uZt3L8Q1S9gdigus-116" source="dI03uZt3L8Q1S9gdigus-80" target="dI03uZt3L8Q1S9gdigus-80">
          <mxGeometry width="50" height="50" relative="1" as="geometry">
            <mxPoint x="89" y="97" as="sourcePoint" />
            <mxPoint x="328" y="97" as="targetPoint" />
          </mxGeometry>
        </mxCell>
        <mxCell id="dI03uZt3L8Q1S9gdigus-95" value="" style="endArrow=none;html=1;rounded=0;fontSize=12;startSize=8;endSize=8;curved=1;exitX=0.88;exitY=0;exitDx=0;exitDy=0;exitPerimeter=0;entryX=0.88;entryY=1;entryDx=0;entryDy=0;entryPerimeter=0;" edge="1" parent="dI03uZt3L8Q1S9gdigus-116" source="dI03uZt3L8Q1S9gdigus-80" target="dI03uZt3L8Q1S9gdigus-80">
          <mxGeometry width="50" height="50" relative="1" as="geometry">
            <mxPoint x="146" y="211" as="sourcePoint" />
            <mxPoint x="385" y="211" as="targetPoint" />
          </mxGeometry>
        </mxCell>
        <mxCell id="dI03uZt3L8Q1S9gdigus-96" value="" style="endArrow=none;html=1;rounded=0;fontSize=12;startSize=8;endSize=8;curved=1;exitX=0.94;exitY=0;exitDx=0;exitDy=0;exitPerimeter=0;entryX=0.94;entryY=1;entryDx=0;entryDy=0;entryPerimeter=0;" edge="1" parent="dI03uZt3L8Q1S9gdigus-116" source="dI03uZt3L8Q1S9gdigus-80" target="dI03uZt3L8Q1S9gdigus-80">
          <mxGeometry width="50" height="50" relative="1" as="geometry">
            <mxPoint x="156" y="221" as="sourcePoint" />
            <mxPoint x="395" y="221" as="targetPoint" />
          </mxGeometry>
        </mxCell>
        <mxCell id="dI03uZt3L8Q1S9gdigus-97" value="0" style="text;html=1;align=center;verticalAlign=middle;resizable=0;points=[];autosize=1;strokeColor=none;fillColor=none;fontSize=16;" vertex="1" parent="dI03uZt3L8Q1S9gdigus-116">
          <mxGeometry width="27" height="31" as="geometry" />
        </mxCell>
        <mxCell id="dI03uZt3L8Q1S9gdigus-117" value="" style="group" vertex="1" connectable="0" parent="1">
          <mxGeometry x="-19" y="865" width="288" height="32" as="geometry" />
        </mxCell>
        <mxCell id="dI03uZt3L8Q1S9gdigus-98" value="" style="rounded=0;whiteSpace=wrap;html=1;points=[[0.06,0,0,0,0],[0.06,1,0,0,0],[0.13,0,0,0,0],[0.13,1,0,0,0],[0.19,0,0,0,0],[0.19,1,0,0,0],[0.25,0,0,0,0],[0.25,1,0,0,0],[0.31,0,0,0,0],[0.31,1,0,0,0],[0.38,0,0,0,0],[0.38,1,0,0,0],[0.44,0,0,0,0],[0.44,1,0,0,0],[0.5,0,0,0,0],[0.5,1,0,0,0],[0.56,0,0,0,0],[0.56,1,0,0,0],[0.63,0,0,0,0],[0.63,1,0,0,0],[0.69,0,0,0,0],[0.69,1,0,0,0],[0.75,0,0,0,0],[0.75,1,0,0,0],[0.81,0,0,0,0],[0.81,1,0,0,0],[0.88,0,0,0,0],[0.88,1,0,0,0],[0.94,0,0,0,0],[0.94,1,0,0,0]];" vertex="1" parent="dI03uZt3L8Q1S9gdigus-117">
          <mxGeometry width="284" height="32" as="geometry" />
        </mxCell>
        <mxCell id="dI03uZt3L8Q1S9gdigus-99" value="" style="endArrow=none;html=1;rounded=0;fontSize=12;startSize=8;endSize=8;curved=1;exitX=0.06;exitY=0;exitDx=0;exitDy=0;exitPerimeter=0;entryX=0.06;entryY=1;entryDx=0;entryDy=0;entryPerimeter=0;" edge="1" parent="dI03uZt3L8Q1S9gdigus-117" source="dI03uZt3L8Q1S9gdigus-98" target="dI03uZt3L8Q1S9gdigus-98">
          <mxGeometry width="50" height="50" relative="1" as="geometry">
            <mxPoint x="10" y="81" as="sourcePoint" />
            <mxPoint x="249" y="81" as="targetPoint" />
          </mxGeometry>
        </mxCell>
        <mxCell id="dI03uZt3L8Q1S9gdigus-100" value="" style="endArrow=none;html=1;rounded=0;fontSize=12;startSize=8;endSize=8;curved=1;exitX=0.13;exitY=0;exitDx=0;exitDy=0;exitPerimeter=0;entryX=0.13;entryY=1;entryDx=0;entryDy=0;entryPerimeter=0;" edge="1" parent="dI03uZt3L8Q1S9gdigus-117" source="dI03uZt3L8Q1S9gdigus-98" target="dI03uZt3L8Q1S9gdigus-98">
          <mxGeometry width="50" height="50" relative="1" as="geometry">
            <mxPoint x="20" y="91" as="sourcePoint" />
            <mxPoint x="259" y="91" as="targetPoint" />
          </mxGeometry>
        </mxCell>
        <mxCell id="dI03uZt3L8Q1S9gdigus-101" value="" style="endArrow=none;html=1;rounded=0;fontSize=12;startSize=8;endSize=8;curved=1;exitX=0.19;exitY=0;exitDx=0;exitDy=0;exitPerimeter=0;entryX=0.19;entryY=1;entryDx=0;entryDy=0;entryPerimeter=0;" edge="1" parent="dI03uZt3L8Q1S9gdigus-117" source="dI03uZt3L8Q1S9gdigus-98" target="dI03uZt3L8Q1S9gdigus-98">
          <mxGeometry width="50" height="50" relative="1" as="geometry">
            <mxPoint x="30" y="101" as="sourcePoint" />
            <mxPoint x="269" y="101" as="targetPoint" />
          </mxGeometry>
        </mxCell>
        <mxCell id="dI03uZt3L8Q1S9gdigus-102" value="" style="endArrow=none;html=1;rounded=0;fontSize=12;startSize=8;endSize=8;curved=1;exitX=0.25;exitY=0;exitDx=0;exitDy=0;exitPerimeter=0;entryX=0.25;entryY=1;entryDx=0;entryDy=0;entryPerimeter=0;" edge="1" parent="dI03uZt3L8Q1S9gdigus-117" source="dI03uZt3L8Q1S9gdigus-98" target="dI03uZt3L8Q1S9gdigus-98">
          <mxGeometry width="50" height="50" relative="1" as="geometry">
            <mxPoint x="40" y="111" as="sourcePoint" />
            <mxPoint x="279" y="111" as="targetPoint" />
          </mxGeometry>
        </mxCell>
        <mxCell id="dI03uZt3L8Q1S9gdigus-103" value="" style="endArrow=none;html=1;rounded=0;fontSize=12;startSize=8;endSize=8;curved=1;exitX=0.31;exitY=0;exitDx=0;exitDy=0;exitPerimeter=0;entryX=0.31;entryY=1;entryDx=0;entryDy=0;entryPerimeter=0;" edge="1" parent="dI03uZt3L8Q1S9gdigus-117" source="dI03uZt3L8Q1S9gdigus-98" target="dI03uZt3L8Q1S9gdigus-98">
          <mxGeometry width="50" height="50" relative="1" as="geometry">
            <mxPoint x="50" y="121" as="sourcePoint" />
            <mxPoint x="289" y="121" as="targetPoint" />
          </mxGeometry>
        </mxCell>
        <mxCell id="dI03uZt3L8Q1S9gdigus-104" value="" style="endArrow=none;html=1;rounded=0;fontSize=12;startSize=8;endSize=8;curved=1;exitX=0.38;exitY=0;exitDx=0;exitDy=0;exitPerimeter=0;entryX=0.38;entryY=1;entryDx=0;entryDy=0;entryPerimeter=0;" edge="1" parent="dI03uZt3L8Q1S9gdigus-117" source="dI03uZt3L8Q1S9gdigus-98" target="dI03uZt3L8Q1S9gdigus-98">
          <mxGeometry width="50" height="50" relative="1" as="geometry">
            <mxPoint x="60" y="131" as="sourcePoint" />
            <mxPoint x="299" y="131" as="targetPoint" />
          </mxGeometry>
        </mxCell>
        <mxCell id="dI03uZt3L8Q1S9gdigus-105" value="" style="endArrow=none;html=1;rounded=0;fontSize=12;startSize=8;endSize=8;curved=1;exitX=0.44;exitY=0;exitDx=0;exitDy=0;exitPerimeter=0;entryX=0.44;entryY=1;entryDx=0;entryDy=0;entryPerimeter=0;" edge="1" parent="dI03uZt3L8Q1S9gdigus-117" source="dI03uZt3L8Q1S9gdigus-98" target="dI03uZt3L8Q1S9gdigus-98">
          <mxGeometry width="50" height="50" relative="1" as="geometry">
            <mxPoint x="70" y="141" as="sourcePoint" />
            <mxPoint x="309" y="141" as="targetPoint" />
          </mxGeometry>
        </mxCell>
        <mxCell id="dI03uZt3L8Q1S9gdigus-106" value="" style="endArrow=none;html=1;rounded=0;fontSize=12;startSize=8;endSize=8;curved=1;exitX=0.5;exitY=0;exitDx=0;exitDy=0;exitPerimeter=0;entryX=0.5;entryY=1;entryDx=0;entryDy=0;entryPerimeter=0;" edge="1" parent="dI03uZt3L8Q1S9gdigus-117" source="dI03uZt3L8Q1S9gdigus-98" target="dI03uZt3L8Q1S9gdigus-98">
          <mxGeometry width="50" height="50" relative="1" as="geometry">
            <mxPoint x="80" y="151" as="sourcePoint" />
            <mxPoint x="319" y="151" as="targetPoint" />
          </mxGeometry>
        </mxCell>
        <mxCell id="dI03uZt3L8Q1S9gdigus-107" value="" style="endArrow=none;html=1;rounded=0;fontSize=12;startSize=8;endSize=8;curved=1;exitX=0.56;exitY=0;exitDx=0;exitDy=0;exitPerimeter=0;entryX=0.56;entryY=1;entryDx=0;entryDy=0;entryPerimeter=0;" edge="1" parent="dI03uZt3L8Q1S9gdigus-117" source="dI03uZt3L8Q1S9gdigus-98" target="dI03uZt3L8Q1S9gdigus-98">
          <mxGeometry width="50" height="50" relative="1" as="geometry">
            <mxPoint x="90" y="161" as="sourcePoint" />
            <mxPoint x="329" y="161" as="targetPoint" />
          </mxGeometry>
        </mxCell>
        <mxCell id="dI03uZt3L8Q1S9gdigus-108" value="" style="endArrow=none;html=1;rounded=0;fontSize=12;startSize=8;endSize=8;curved=1;exitX=0.63;exitY=0;exitDx=0;exitDy=0;exitPerimeter=0;entryX=0.63;entryY=1;entryDx=0;entryDy=0;entryPerimeter=0;" edge="1" parent="dI03uZt3L8Q1S9gdigus-117" source="dI03uZt3L8Q1S9gdigus-98" target="dI03uZt3L8Q1S9gdigus-98">
          <mxGeometry width="50" height="50" relative="1" as="geometry">
            <mxPoint x="100" y="171" as="sourcePoint" />
            <mxPoint x="339" y="171" as="targetPoint" />
          </mxGeometry>
        </mxCell>
        <mxCell id="dI03uZt3L8Q1S9gdigus-109" value="" style="endArrow=none;html=1;rounded=0;fontSize=12;startSize=8;endSize=8;curved=1;exitX=0.69;exitY=0;exitDx=0;exitDy=0;exitPerimeter=0;entryX=0.69;entryY=1;entryDx=0;entryDy=0;entryPerimeter=0;" edge="1" parent="dI03uZt3L8Q1S9gdigus-117" source="dI03uZt3L8Q1S9gdigus-98" target="dI03uZt3L8Q1S9gdigus-98">
          <mxGeometry width="50" height="50" relative="1" as="geometry">
            <mxPoint x="110" y="181" as="sourcePoint" />
            <mxPoint x="349" y="181" as="targetPoint" />
          </mxGeometry>
        </mxCell>
        <mxCell id="dI03uZt3L8Q1S9gdigus-110" value="" style="endArrow=none;html=1;rounded=0;fontSize=12;startSize=8;endSize=8;curved=1;exitX=0.75;exitY=0;exitDx=0;exitDy=0;exitPerimeter=0;entryX=0.75;entryY=1;entryDx=0;entryDy=0;entryPerimeter=0;" edge="1" parent="dI03uZt3L8Q1S9gdigus-117" source="dI03uZt3L8Q1S9gdigus-98" target="dI03uZt3L8Q1S9gdigus-98">
          <mxGeometry width="50" height="50" relative="1" as="geometry">
            <mxPoint x="120" y="191" as="sourcePoint" />
            <mxPoint x="359" y="191" as="targetPoint" />
          </mxGeometry>
        </mxCell>
        <mxCell id="dI03uZt3L8Q1S9gdigus-111" value="" style="endArrow=none;html=1;rounded=0;fontSize=12;startSize=8;endSize=8;curved=1;exitX=0.81;exitY=0;exitDx=0;exitDy=0;exitPerimeter=0;entryX=0.81;entryY=1;entryDx=0;entryDy=0;entryPerimeter=0;" edge="1" parent="dI03uZt3L8Q1S9gdigus-117" source="dI03uZt3L8Q1S9gdigus-98" target="dI03uZt3L8Q1S9gdigus-98">
          <mxGeometry width="50" height="50" relative="1" as="geometry">
            <mxPoint x="83" y="97" as="sourcePoint" />
            <mxPoint x="322" y="97" as="targetPoint" />
          </mxGeometry>
        </mxCell>
        <mxCell id="dI03uZt3L8Q1S9gdigus-112" value="" style="endArrow=none;html=1;rounded=0;fontSize=12;startSize=8;endSize=8;curved=1;exitX=0.88;exitY=0;exitDx=0;exitDy=0;exitPerimeter=0;entryX=0.88;entryY=1;entryDx=0;entryDy=0;entryPerimeter=0;" edge="1" parent="dI03uZt3L8Q1S9gdigus-117" source="dI03uZt3L8Q1S9gdigus-98" target="dI03uZt3L8Q1S9gdigus-98">
          <mxGeometry width="50" height="50" relative="1" as="geometry">
            <mxPoint x="140" y="211" as="sourcePoint" />
            <mxPoint x="379" y="211" as="targetPoint" />
          </mxGeometry>
        </mxCell>
        <mxCell id="dI03uZt3L8Q1S9gdigus-113" value="" style="endArrow=none;html=1;rounded=0;fontSize=12;startSize=8;endSize=8;curved=1;exitX=0.94;exitY=0;exitDx=0;exitDy=0;exitPerimeter=0;entryX=0.94;entryY=1;entryDx=0;entryDy=0;entryPerimeter=0;" edge="1" parent="dI03uZt3L8Q1S9gdigus-117" source="dI03uZt3L8Q1S9gdigus-98" target="dI03uZt3L8Q1S9gdigus-98">
          <mxGeometry width="50" height="50" relative="1" as="geometry">
            <mxPoint x="150" y="221" as="sourcePoint" />
            <mxPoint x="389" y="221" as="targetPoint" />
          </mxGeometry>
        </mxCell>
        <mxCell id="dI03uZt3L8Q1S9gdigus-115" value="0" style="text;html=1;align=center;verticalAlign=middle;resizable=0;points=[];autosize=1;strokeColor=none;fillColor=none;fontSize=16;" vertex="1" parent="dI03uZt3L8Q1S9gdigus-117">
          <mxGeometry x="261" y="1" width="27" height="31" as="geometry" />
        </mxCell>
        <mxCell id="dI03uZt3L8Q1S9gdigus-118" value="&lt;b&gt;A&lt;/b&gt;" style="text;html=1;align=center;verticalAlign=middle;resizable=0;points=[];autosize=1;strokeColor=none;fillColor=none;fontSize=16;" vertex="1" parent="1">
          <mxGeometry x="-88" y="600" width="30" height="31" as="geometry" />
        </mxCell>
        <mxCell id="dI03uZt3L8Q1S9gdigus-178" style="edgeStyle=none;curved=0;rounded=0;orthogonalLoop=1;jettySize=auto;html=1;fontSize=12;startSize=8;endSize=8;endArrow=none;endFill=0;" edge="1" parent="1" source="dI03uZt3L8Q1S9gdigus-120">
          <mxGeometry relative="1" as="geometry">
            <mxPoint x="69" y="-706" as="targetPoint" />
            <Array as="points">
              <mxPoint x="-314" y="524" />
              <mxPoint x="-229" y="525" />
              <mxPoint x="-219" y="-876" />
              <mxPoint x="70" y="-875" />
            </Array>
          </mxGeometry>
        </mxCell>
        <mxCell id="dI03uZt3L8Q1S9gdigus-120" value="&lt;b&gt;B&lt;/b&gt;" style="text;html=1;align=center;verticalAlign=middle;resizable=0;points=[];autosize=1;strokeColor=none;fillColor=none;fontSize=16;" vertex="1" parent="1">
          <mxGeometry x="-320" y="-140" width="30" height="31" as="geometry" />
        </mxCell>
        <mxCell id="dI03uZt3L8Q1S9gdigus-124" style="edgeStyle=none;curved=1;rounded=0;orthogonalLoop=1;jettySize=auto;html=1;entryX=0.097;entryY=-0.003;entryDx=0;entryDy=0;entryPerimeter=0;fontSize=12;startSize=8;endSize=8;" edge="1" parent="1" target="dI03uZt3L8Q1S9gdigus-80">
          <mxGeometry relative="1" as="geometry">
            <mxPoint x="-58" y="625.0045556723169" as="sourcePoint" />
            <mxPoint x="14.548000000000002" y="691.1420000000002" as="targetPoint" />
          </mxGeometry>
        </mxCell>
        <mxCell id="dI03uZt3L8Q1S9gdigus-125" style="edgeStyle=none;curved=1;rounded=0;orthogonalLoop=1;jettySize=auto;html=1;entryX=0.163;entryY=-0.008;entryDx=0;entryDy=0;entryPerimeter=0;fontSize=12;startSize=8;endSize=8;" edge="1" parent="1" source="dI03uZt3L8Q1S9gdigus-118" target="dI03uZt3L8Q1S9gdigus-80">
          <mxGeometry relative="1" as="geometry" />
        </mxCell>
        <mxCell id="dI03uZt3L8Q1S9gdigus-126" style="edgeStyle=none;curved=1;rounded=0;orthogonalLoop=1;jettySize=auto;html=1;entryX=0.225;entryY=-0.008;entryDx=0;entryDy=0;entryPerimeter=0;fontSize=12;startSize=8;endSize=8;" edge="1" parent="1" source="dI03uZt3L8Q1S9gdigus-118" target="dI03uZt3L8Q1S9gdigus-80">
          <mxGeometry relative="1" as="geometry" />
        </mxCell>
        <mxCell id="dI03uZt3L8Q1S9gdigus-127" style="edgeStyle=none;curved=1;rounded=0;orthogonalLoop=1;jettySize=auto;html=1;entryX=0.282;entryY=-0.008;entryDx=0;entryDy=0;entryPerimeter=0;fontSize=12;startSize=8;endSize=8;" edge="1" parent="1" source="dI03uZt3L8Q1S9gdigus-118" target="dI03uZt3L8Q1S9gdigus-80">
          <mxGeometry relative="1" as="geometry" />
        </mxCell>
        <mxCell id="dI03uZt3L8Q1S9gdigus-128" style="edgeStyle=none;curved=1;rounded=0;orthogonalLoop=1;jettySize=auto;html=1;entryX=0.348;entryY=-0.003;entryDx=0;entryDy=0;entryPerimeter=0;fontSize=12;startSize=8;endSize=8;" edge="1" parent="1" source="dI03uZt3L8Q1S9gdigus-118" target="dI03uZt3L8Q1S9gdigus-80">
          <mxGeometry relative="1" as="geometry" />
        </mxCell>
        <mxCell id="dI03uZt3L8Q1S9gdigus-129" style="edgeStyle=none;curved=1;rounded=0;orthogonalLoop=1;jettySize=auto;html=1;entryX=0.412;entryY=-0.003;entryDx=0;entryDy=0;entryPerimeter=0;fontSize=12;startSize=8;endSize=8;" edge="1" parent="1" source="dI03uZt3L8Q1S9gdigus-118" target="dI03uZt3L8Q1S9gdigus-80">
          <mxGeometry relative="1" as="geometry" />
        </mxCell>
        <mxCell id="dI03uZt3L8Q1S9gdigus-130" style="edgeStyle=none;curved=1;rounded=0;orthogonalLoop=1;jettySize=auto;html=1;entryX=0.474;entryY=-0.014;entryDx=0;entryDy=0;entryPerimeter=0;fontSize=12;startSize=8;endSize=8;" edge="1" parent="1" source="dI03uZt3L8Q1S9gdigus-118" target="dI03uZt3L8Q1S9gdigus-80">
          <mxGeometry relative="1" as="geometry" />
        </mxCell>
        <mxCell id="dI03uZt3L8Q1S9gdigus-131" style="edgeStyle=none;curved=1;rounded=0;orthogonalLoop=1;jettySize=auto;html=1;entryX=0.532;entryY=-0.025;entryDx=0;entryDy=0;entryPerimeter=0;fontSize=12;startSize=8;endSize=8;" edge="1" parent="1" source="dI03uZt3L8Q1S9gdigus-118" target="dI03uZt3L8Q1S9gdigus-80">
          <mxGeometry relative="1" as="geometry" />
        </mxCell>
        <mxCell id="dI03uZt3L8Q1S9gdigus-132" style="edgeStyle=none;curved=1;rounded=0;orthogonalLoop=1;jettySize=auto;html=1;entryX=0.598;entryY=-0.003;entryDx=0;entryDy=0;entryPerimeter=0;fontSize=12;startSize=8;endSize=8;" edge="1" parent="1" source="dI03uZt3L8Q1S9gdigus-118" target="dI03uZt3L8Q1S9gdigus-80">
          <mxGeometry relative="1" as="geometry" />
        </mxCell>
        <mxCell id="dI03uZt3L8Q1S9gdigus-133" style="edgeStyle=none;curved=1;rounded=0;orthogonalLoop=1;jettySize=auto;html=1;entryX=0.662;entryY=-0.014;entryDx=0;entryDy=0;entryPerimeter=0;fontSize=12;startSize=8;endSize=8;" edge="1" parent="1" source="dI03uZt3L8Q1S9gdigus-118" target="dI03uZt3L8Q1S9gdigus-80">
          <mxGeometry relative="1" as="geometry" />
        </mxCell>
        <mxCell id="dI03uZt3L8Q1S9gdigus-134" style="edgeStyle=none;curved=1;rounded=0;orthogonalLoop=1;jettySize=auto;html=1;entryX=0.723;entryY=-0.019;entryDx=0;entryDy=0;entryPerimeter=0;fontSize=12;startSize=8;endSize=8;" edge="1" parent="1" source="dI03uZt3L8Q1S9gdigus-118" target="dI03uZt3L8Q1S9gdigus-80">
          <mxGeometry relative="1" as="geometry" />
        </mxCell>
        <mxCell id="dI03uZt3L8Q1S9gdigus-135" style="edgeStyle=none;curved=1;rounded=0;orthogonalLoop=1;jettySize=auto;html=1;entryX=0.781;entryY=-0.01;entryDx=0;entryDy=0;entryPerimeter=0;fontSize=12;startSize=8;endSize=8;" edge="1" parent="1" source="dI03uZt3L8Q1S9gdigus-118" target="dI03uZt3L8Q1S9gdigus-80">
          <mxGeometry relative="1" as="geometry" />
        </mxCell>
        <mxCell id="dI03uZt3L8Q1S9gdigus-136" style="edgeStyle=none;curved=1;rounded=0;orthogonalLoop=1;jettySize=auto;html=1;entryX=0.844;entryY=0.033;entryDx=0;entryDy=0;entryPerimeter=0;fontSize=12;startSize=8;endSize=8;" edge="1" parent="1">
          <mxGeometry relative="1" as="geometry">
            <mxPoint x="-58" y="618.4218349260586" as="sourcePoint" />
            <mxPoint x="226.69600000000014" y="693.9960000000001" as="targetPoint" />
          </mxGeometry>
        </mxCell>
        <mxCell id="dI03uZt3L8Q1S9gdigus-137" style="edgeStyle=none;curved=1;rounded=0;orthogonalLoop=1;jettySize=auto;html=1;entryX=0.91;entryY=0.001;entryDx=0;entryDy=0;entryPerimeter=0;fontSize=12;startSize=8;endSize=8;" edge="1" parent="1" source="dI03uZt3L8Q1S9gdigus-118" target="dI03uZt3L8Q1S9gdigus-80">
          <mxGeometry relative="1" as="geometry" />
        </mxCell>
        <mxCell id="dI03uZt3L8Q1S9gdigus-138" style="edgeStyle=none;curved=1;rounded=0;orthogonalLoop=1;jettySize=auto;html=1;entryX=0.976;entryY=0.001;entryDx=0;entryDy=0;entryPerimeter=0;fontSize=12;startSize=8;endSize=8;" edge="1" parent="1" source="dI03uZt3L8Q1S9gdigus-118" target="dI03uZt3L8Q1S9gdigus-80">
          <mxGeometry relative="1" as="geometry" />
        </mxCell>
        <mxCell id="dI03uZt3L8Q1S9gdigus-155" value="&lt;b&gt;A&lt;/b&gt;" style="text;html=1;align=center;verticalAlign=middle;resizable=0;points=[];autosize=1;strokeColor=none;fillColor=none;fontSize=16;" vertex="1" parent="1">
          <mxGeometry x="285" y="779" width="30" height="31" as="geometry" />
        </mxCell>
        <mxCell id="dI03uZt3L8Q1S9gdigus-157" style="edgeStyle=none;curved=1;rounded=0;orthogonalLoop=1;jettySize=auto;html=1;fontSize=12;startSize=8;endSize=8;" edge="1" parent="1">
          <mxGeometry relative="1" as="geometry">
            <mxPoint x="7" y="864" as="targetPoint" />
            <mxPoint x="276" y="790.5933098591545" as="sourcePoint" />
            <Array as="points" />
          </mxGeometry>
        </mxCell>
        <mxCell id="dI03uZt3L8Q1S9gdigus-158" style="edgeStyle=none;curved=1;rounded=0;orthogonalLoop=1;jettySize=auto;html=1;fontSize=12;startSize=8;endSize=8;" edge="1" parent="1">
          <mxGeometry relative="1" as="geometry">
            <mxPoint x="24" y="865" as="targetPoint" />
            <mxPoint x="274" y="794.7169811320755" as="sourcePoint" />
          </mxGeometry>
        </mxCell>
        <mxCell id="dI03uZt3L8Q1S9gdigus-159" style="edgeStyle=none;curved=1;rounded=0;orthogonalLoop=1;jettySize=auto;html=1;fontSize=12;startSize=8;endSize=8;" edge="1" parent="1">
          <mxGeometry relative="1" as="geometry">
            <mxPoint x="38" y="863" as="targetPoint" />
            <mxPoint x="276" y="791.0355731225295" as="sourcePoint" />
          </mxGeometry>
        </mxCell>
        <mxCell id="dI03uZt3L8Q1S9gdigus-160" style="edgeStyle=none;curved=1;rounded=0;orthogonalLoop=1;jettySize=auto;html=1;fontSize=12;startSize=8;endSize=8;" edge="1" parent="1">
          <mxGeometry relative="1" as="geometry">
            <mxPoint x="57" y="863" as="targetPoint" />
            <mxPoint x="276" y="791.4038461538457" as="sourcePoint" />
          </mxGeometry>
        </mxCell>
        <mxCell id="dI03uZt3L8Q1S9gdigus-161" style="edgeStyle=none;curved=1;rounded=0;orthogonalLoop=1;jettySize=auto;html=1;fontSize=12;startSize=8;endSize=8;" edge="1" parent="1">
          <mxGeometry relative="1" as="geometry">
            <mxPoint x="75" y="863" as="targetPoint" />
            <mxPoint x="276" y="791.8125" as="sourcePoint" />
          </mxGeometry>
        </mxCell>
        <mxCell id="dI03uZt3L8Q1S9gdigus-162" style="edgeStyle=none;curved=1;rounded=0;orthogonalLoop=1;jettySize=auto;html=1;fontSize=12;startSize=8;endSize=8;" edge="1" parent="1">
          <mxGeometry relative="1" as="geometry">
            <mxPoint x="93" y="863" as="targetPoint" />
            <mxPoint x="276" y="792.2954545454545" as="sourcePoint" />
          </mxGeometry>
        </mxCell>
        <mxCell id="dI03uZt3L8Q1S9gdigus-163" style="edgeStyle=none;curved=1;rounded=0;orthogonalLoop=1;jettySize=auto;html=1;fontSize=12;startSize=8;endSize=8;" edge="1" parent="1">
          <mxGeometry relative="1" as="geometry">
            <mxPoint x="109" y="862" as="targetPoint" />
            <mxPoint x="276" y="792.7225274725274" as="sourcePoint" />
          </mxGeometry>
        </mxCell>
        <mxCell id="dI03uZt3L8Q1S9gdigus-164" style="edgeStyle=none;curved=1;rounded=0;orthogonalLoop=1;jettySize=auto;html=1;fontSize=12;startSize=8;endSize=8;" edge="1" parent="1">
          <mxGeometry relative="1" as="geometry">
            <mxPoint x="128" y="863" as="targetPoint" />
            <mxPoint x="276" y="793.5398773006132" as="sourcePoint" />
          </mxGeometry>
        </mxCell>
        <mxCell id="dI03uZt3L8Q1S9gdigus-165" style="edgeStyle=none;curved=1;rounded=0;orthogonalLoop=1;jettySize=auto;html=1;fontSize=12;startSize=8;endSize=8;" edge="1" parent="1">
          <mxGeometry relative="1" as="geometry">
            <mxPoint x="146" y="863" as="targetPoint" />
            <mxPoint x="276" y="794.4137931034484" as="sourcePoint" />
          </mxGeometry>
        </mxCell>
        <mxCell id="dI03uZt3L8Q1S9gdigus-166" style="edgeStyle=none;curved=1;rounded=0;orthogonalLoop=1;jettySize=auto;html=1;fontSize=12;startSize=8;endSize=8;" edge="1" parent="1">
          <mxGeometry relative="1" as="geometry">
            <mxPoint x="163" y="862" as="targetPoint" />
            <mxPoint x="276" y="795.34765625" as="sourcePoint" />
          </mxGeometry>
        </mxCell>
        <mxCell id="dI03uZt3L8Q1S9gdigus-167" style="edgeStyle=none;curved=1;rounded=0;orthogonalLoop=1;jettySize=auto;html=1;fontSize=12;startSize=8;endSize=8;" edge="1" parent="1">
          <mxGeometry relative="1" as="geometry">
            <mxPoint x="180" y="863" as="targetPoint" />
            <mxPoint x="276" y="796.8378378378379" as="sourcePoint" />
          </mxGeometry>
        </mxCell>
        <mxCell id="dI03uZt3L8Q1S9gdigus-169" style="edgeStyle=none;curved=1;rounded=0;orthogonalLoop=1;jettySize=auto;html=1;fontSize=12;startSize=8;endSize=8;" edge="1" parent="1">
          <mxGeometry relative="1" as="geometry">
            <mxPoint x="220" y="865" as="targetPoint" />
            <mxPoint x="275" y="803" as="sourcePoint" />
          </mxGeometry>
        </mxCell>
        <mxCell id="dI03uZt3L8Q1S9gdigus-170" style="edgeStyle=none;curved=1;rounded=0;orthogonalLoop=1;jettySize=auto;html=1;fontSize=12;startSize=8;endSize=8;entryX=0.908;entryY=-0.014;entryDx=0;entryDy=0;entryPerimeter=0;" edge="1" parent="1" target="dI03uZt3L8Q1S9gdigus-98">
          <mxGeometry relative="1" as="geometry">
            <mxPoint x="239" y="863" as="targetPoint" />
            <mxPoint x="275" y="806" as="sourcePoint" />
          </mxGeometry>
        </mxCell>
        <mxCell id="dI03uZt3L8Q1S9gdigus-171" style="edgeStyle=none;curved=1;rounded=0;orthogonalLoop=1;jettySize=auto;html=1;entryX=0.778;entryY=-0.006;entryDx=0;entryDy=0;entryPerimeter=0;fontSize=12;startSize=8;endSize=8;" edge="1" parent="1" target="dI03uZt3L8Q1S9gdigus-98">
          <mxGeometry relative="1" as="geometry">
            <mxPoint x="276" y="799" as="sourcePoint" />
          </mxGeometry>
        </mxCell>
        <mxCell id="dI03uZt3L8Q1S9gdigus-172" style="edgeStyle=none;curved=1;rounded=0;orthogonalLoop=1;jettySize=auto;html=1;entryX=0.03;entryY=-0.031;entryDx=0;entryDy=0;entryPerimeter=0;fontSize=12;startSize=8;endSize=8;" edge="1" parent="1" target="dI03uZt3L8Q1S9gdigus-98">
          <mxGeometry relative="1" as="geometry">
            <mxPoint x="276" y="790.3563752156033" as="sourcePoint" />
          </mxGeometry>
        </mxCell>
        <mxCell id="dI03uZt3L8Q1S9gdigus-174" style="edgeStyle=none;curved=0;rounded=0;orthogonalLoop=1;jettySize=auto;html=1;entryX=0;entryY=0.82;entryDx=0;entryDy=0;entryPerimeter=0;fontSize=12;startSize=8;endSize=8;exitX=1;exitY=0.498;exitDx=0;exitDy=0;exitPerimeter=0;strokeColor=default;" edge="1" parent="1" source="dI03uZt3L8Q1S9gdigus-80" target="dI03uZt3L8Q1S9gdigus-12">
          <mxGeometry relative="1" as="geometry">
            <Array as="points">
              <mxPoint x="413" y="712" />
              <mxPoint x="411" y="453" />
              <mxPoint x="409" y="192" />
            </Array>
          </mxGeometry>
        </mxCell>
        <mxCell id="dI03uZt3L8Q1S9gdigus-175" style="edgeStyle=none;curved=0;rounded=0;orthogonalLoop=1;jettySize=auto;html=1;entryX=0;entryY=0.88;entryDx=0;entryDy=0;entryPerimeter=0;fontSize=12;startSize=8;endSize=8;exitX=0.903;exitY=0.538;exitDx=0;exitDy=0;exitPerimeter=0;" edge="1" parent="1" source="dI03uZt3L8Q1S9gdigus-115" target="dI03uZt3L8Q1S9gdigus-12">
          <mxGeometry relative="1" as="geometry">
            <Array as="points">
              <mxPoint x="437" y="885" />
              <mxPoint x="437" y="624" />
              <mxPoint x="437" y="208" />
            </Array>
          </mxGeometry>
        </mxCell>
        <mxCell id="dI03uZt3L8Q1S9gdigus-177" style="edgeStyle=none;curved=0;rounded=0;orthogonalLoop=1;jettySize=auto;html=1;fontSize=12;startSize=8;endSize=8;endArrow=none;endFill=0;" edge="1" parent="1" source="dI03uZt3L8Q1S9gdigus-176">
          <mxGeometry relative="1" as="geometry">
            <mxPoint x="13" y="-687" as="targetPoint" />
            <Array as="points">
              <mxPoint x="-279" y="581" />
              <mxPoint x="-193" y="581" />
              <mxPoint x="-185" y="-835" />
              <mxPoint x="13" y="-833" />
            </Array>
          </mxGeometry>
        </mxCell>
        <mxCell id="dI03uZt3L8Q1S9gdigus-176" value="&lt;b&gt;A&lt;/b&gt;" style="text;html=1;align=center;verticalAlign=middle;resizable=0;points=[];autosize=1;strokeColor=none;fillColor=none;fontSize=16;" vertex="1" parent="1">
          <mxGeometry x="-290" y="-198" width="30" height="31" as="geometry" />
        </mxCell>
        <mxCell id="dI03uZt3L8Q1S9gdigus-184" style="edgeStyle=none;curved=0;rounded=0;orthogonalLoop=1;jettySize=auto;html=1;exitX=0.25;exitY=0;exitDx=0;exitDy=0;fontSize=12;startSize=8;endSize=8;endArrow=none;endFill=0;" edge="1" parent="1">
          <mxGeometry relative="1" as="geometry">
            <mxPoint x="-188" y="-289" as="targetPoint" />
            <mxPoint x="1.259999999999991" y="-278" as="sourcePoint" />
            <Array as="points">
              <mxPoint x="1.259999999999991" y="-289" />
            </Array>
          </mxGeometry>
        </mxCell>
        <mxCell id="dI03uZt3L8Q1S9gdigus-185" style="edgeStyle=none;curved=0;rounded=0;orthogonalLoop=1;jettySize=auto;html=1;exitX=0.75;exitY=0;exitDx=0;exitDy=0;fontSize=12;startSize=8;endSize=8;endArrow=none;endFill=0;jumpStyle=arc;jumpSize=16;" edge="1" parent="1">
          <mxGeometry relative="1" as="geometry">
            <mxPoint x="-223.9993044704861" y="-304.9951738823784" as="targetPoint" />
            <mxPoint x="36.25999999999999" y="-278" as="sourcePoint" />
            <Array as="points">
              <mxPoint x="36.25999999999999" y="-304.81" />
            </Array>
          </mxGeometry>
        </mxCell>
        <mxCell id="dI03uZt3L8Q1S9gdigus-186" style="edgeStyle=none;curved=0;rounded=0;orthogonalLoop=1;jettySize=auto;html=1;exitX=0.25;exitY=0;exitDx=0;exitDy=0;fontSize=12;startSize=8;endSize=8;endArrow=none;endFill=0;" edge="1" parent="1">
          <mxGeometry relative="1" as="geometry">
            <mxPoint x="-188" y="-217" as="targetPoint" />
            <mxPoint x="2.259999999999991" y="-206" as="sourcePoint" />
            <Array as="points">
              <mxPoint x="2.259999999999991" y="-217" />
            </Array>
          </mxGeometry>
        </mxCell>
        <mxCell id="dI03uZt3L8Q1S9gdigus-187" style="edgeStyle=none;curved=0;rounded=0;orthogonalLoop=1;jettySize=auto;html=1;exitX=0.75;exitY=0;exitDx=0;exitDy=0;fontSize=12;startSize=8;endSize=8;endArrow=none;endFill=0;jumpSize=16;jumpStyle=arc;" edge="1" parent="1">
          <mxGeometry relative="1" as="geometry">
            <mxPoint x="-222.9993044704861" y="-232.99517388237842" as="targetPoint" />
            <mxPoint x="37.25999999999999" y="-206" as="sourcePoint" />
            <Array as="points">
              <mxPoint x="37.25999999999999" y="-232.81" />
            </Array>
          </mxGeometry>
        </mxCell>
        <mxCell id="dI03uZt3L8Q1S9gdigus-188" style="edgeStyle=none;curved=0;rounded=0;orthogonalLoop=1;jettySize=auto;html=1;exitX=0.25;exitY=0;exitDx=0;exitDy=0;fontSize=12;startSize=8;endSize=8;endArrow=none;endFill=0;" edge="1" parent="1">
          <mxGeometry relative="1" as="geometry">
            <mxPoint x="-189" y="-145" as="targetPoint" />
            <mxPoint x="1.259999999999991" y="-134" as="sourcePoint" />
            <Array as="points">
              <mxPoint x="1.259999999999991" y="-145" />
            </Array>
          </mxGeometry>
        </mxCell>
        <mxCell id="dI03uZt3L8Q1S9gdigus-189" style="edgeStyle=none;curved=0;rounded=0;orthogonalLoop=1;jettySize=auto;html=1;exitX=0.75;exitY=0;exitDx=0;exitDy=0;fontSize=12;startSize=8;endSize=8;endArrow=none;endFill=0;jumpStyle=arc;jumpSize=16;" edge="1" parent="1">
          <mxGeometry relative="1" as="geometry">
            <mxPoint x="-223.9993044704861" y="-160.99517388237842" as="targetPoint" />
            <mxPoint x="36.25999999999999" y="-134" as="sourcePoint" />
            <Array as="points">
              <mxPoint x="36.25999999999999" y="-160.81" />
            </Array>
          </mxGeometry>
        </mxCell>
        <mxCell id="dI03uZt3L8Q1S9gdigus-190" style="edgeStyle=none;curved=0;rounded=0;orthogonalLoop=1;jettySize=auto;html=1;exitX=0.25;exitY=0;exitDx=0;exitDy=0;fontSize=12;startSize=8;endSize=8;endArrow=none;endFill=0;" edge="1" parent="1">
          <mxGeometry relative="1" as="geometry">
            <mxPoint x="-189" y="-54" as="targetPoint" />
            <mxPoint x="-0.7400000000000091" y="-43" as="sourcePoint" />
            <Array as="points">
              <mxPoint x="-0.7400000000000091" y="-54" />
            </Array>
          </mxGeometry>
        </mxCell>
        <mxCell id="dI03uZt3L8Q1S9gdigus-191" style="edgeStyle=none;curved=0;rounded=0;orthogonalLoop=1;jettySize=auto;html=1;exitX=0.75;exitY=0;exitDx=0;exitDy=0;fontSize=12;startSize=8;endSize=8;endArrow=none;endFill=0;jumpStyle=arc;jumpSize=16;" edge="1" parent="1">
          <mxGeometry relative="1" as="geometry">
            <mxPoint x="-225.9993044704861" y="-69.99517388237842" as="targetPoint" />
            <mxPoint x="34.25999999999999" y="-43" as="sourcePoint" />
            <Array as="points">
              <mxPoint x="34.25999999999999" y="-69.81" />
            </Array>
          </mxGeometry>
        </mxCell>
        <mxCell id="dI03uZt3L8Q1S9gdigus-192" style="edgeStyle=none;curved=0;rounded=0;orthogonalLoop=1;jettySize=auto;html=1;exitX=0.25;exitY=0;exitDx=0;exitDy=0;fontSize=12;startSize=8;endSize=8;endArrow=none;endFill=0;" edge="1" parent="1">
          <mxGeometry relative="1" as="geometry">
            <mxPoint x="-190" y="51" as="targetPoint" />
            <mxPoint x="-0.7400000000000091" y="62" as="sourcePoint" />
            <Array as="points">
              <mxPoint x="-0.7400000000000091" y="51" />
            </Array>
          </mxGeometry>
        </mxCell>
        <mxCell id="dI03uZt3L8Q1S9gdigus-193" style="edgeStyle=none;curved=0;rounded=0;orthogonalLoop=1;jettySize=auto;html=1;exitX=0.75;exitY=0;exitDx=0;exitDy=0;fontSize=12;startSize=8;endSize=8;endArrow=none;endFill=0;jumpStyle=arc;jumpSize=16;" edge="1" parent="1">
          <mxGeometry relative="1" as="geometry">
            <mxPoint x="-225.9993044704861" y="35.004826117621576" as="targetPoint" />
            <mxPoint x="34.25999999999999" y="62" as="sourcePoint" />
            <Array as="points">
              <mxPoint x="34.25999999999999" y="35.19" />
            </Array>
          </mxGeometry>
        </mxCell>
        <mxCell id="dI03uZt3L8Q1S9gdigus-194" style="edgeStyle=none;curved=0;rounded=0;orthogonalLoop=1;jettySize=auto;html=1;exitX=0.25;exitY=0;exitDx=0;exitDy=0;fontSize=12;startSize=8;endSize=8;endArrow=none;endFill=0;" edge="1" parent="1">
          <mxGeometry relative="1" as="geometry">
            <mxPoint x="-191" y="245" as="targetPoint" />
            <mxPoint x="-0.7400000000000091" y="256" as="sourcePoint" />
            <Array as="points">
              <mxPoint x="-0.7400000000000091" y="245" />
            </Array>
          </mxGeometry>
        </mxCell>
        <mxCell id="dI03uZt3L8Q1S9gdigus-195" style="edgeStyle=none;curved=0;rounded=0;orthogonalLoop=1;jettySize=auto;html=1;exitX=0.75;exitY=0;exitDx=0;exitDy=0;fontSize=12;startSize=8;endSize=8;endArrow=none;endFill=0;jumpStyle=arc;jumpSize=16;" edge="1" parent="1">
          <mxGeometry relative="1" as="geometry">
            <mxPoint x="-225.9993044704861" y="229.00482611762158" as="targetPoint" />
            <mxPoint x="34.25999999999999" y="256" as="sourcePoint" />
            <Array as="points">
              <mxPoint x="34.25999999999999" y="229.19" />
            </Array>
          </mxGeometry>
        </mxCell>
        <mxCell id="dI03uZt3L8Q1S9gdigus-196" style="edgeStyle=none;curved=0;rounded=0;orthogonalLoop=1;jettySize=auto;html=1;exitX=0.25;exitY=0;exitDx=0;exitDy=0;fontSize=12;startSize=8;endSize=8;endArrow=none;endFill=0;" edge="1" parent="1">
          <mxGeometry relative="1" as="geometry">
            <mxPoint x="-192" y="353" as="targetPoint" />
            <mxPoint x="-2.740000000000009" y="364" as="sourcePoint" />
            <Array as="points">
              <mxPoint x="-2.740000000000009" y="353" />
            </Array>
          </mxGeometry>
        </mxCell>
        <mxCell id="dI03uZt3L8Q1S9gdigus-197" style="edgeStyle=none;curved=0;rounded=0;orthogonalLoop=1;jettySize=auto;html=1;exitX=0.75;exitY=0;exitDx=0;exitDy=0;fontSize=12;startSize=8;endSize=8;endArrow=none;endFill=0;jumpStyle=arc;jumpSize=16;" edge="1" parent="1">
          <mxGeometry relative="1" as="geometry">
            <mxPoint x="-227.9993044704861" y="337.0048261176216" as="targetPoint" />
            <mxPoint x="32.25999999999999" y="364" as="sourcePoint" />
            <Array as="points">
              <mxPoint x="32.25999999999999" y="337.19" />
            </Array>
          </mxGeometry>
        </mxCell>
        <mxCell id="dI03uZt3L8Q1S9gdigus-198" style="edgeStyle=none;curved=0;rounded=0;orthogonalLoop=1;jettySize=auto;html=1;exitX=0.25;exitY=0;exitDx=0;exitDy=0;fontSize=12;startSize=8;endSize=8;endArrow=none;endFill=0;" edge="1" parent="1">
          <mxGeometry relative="1" as="geometry">
            <mxPoint x="-192" y="477" as="targetPoint" />
            <mxPoint x="-3.740000000000009" y="488" as="sourcePoint" />
            <Array as="points">
              <mxPoint x="-3.740000000000009" y="477" />
            </Array>
          </mxGeometry>
        </mxCell>
        <mxCell id="dI03uZt3L8Q1S9gdigus-199" style="edgeStyle=none;curved=0;rounded=0;orthogonalLoop=1;jettySize=auto;html=1;exitX=0.75;exitY=0;exitDx=0;exitDy=0;fontSize=12;startSize=8;endSize=8;endArrow=none;endFill=0;jumpStyle=arc;jumpSize=16;" edge="1" parent="1">
          <mxGeometry relative="1" as="geometry">
            <mxPoint x="-228.9993044704861" y="461.0048261176216" as="targetPoint" />
            <mxPoint x="31.25999999999999" y="488" as="sourcePoint" />
            <Array as="points">
              <mxPoint x="31.25999999999999" y="461.19" />
            </Array>
          </mxGeometry>
        </mxCell>
        <mxCell id="dI03uZt3L8Q1S9gdigus-200" value="" style="verticalLabelPosition=bottom;shadow=0;dashed=0;align=center;html=1;verticalAlign=top;shape=mxgraph.electrical.logic_gates.logic_gate;operation=and;" vertex="1" parent="1">
          <mxGeometry x="88" y="-140" width="100" height="60" as="geometry" />
        </mxCell>
        <mxCell id="dI03uZt3L8Q1S9gdigus-205" value="" style="endArrow=none;html=1;rounded=0;fontSize=12;startSize=8;endSize=8;curved=0;entryX=0;entryY=0.75;entryDx=0;entryDy=0;entryPerimeter=0;" edge="1" parent="1" target="dI03uZt3L8Q1S9gdigus-200">
          <mxGeometry width="50" height="50" relative="1" as="geometry">
            <mxPoint x="36" y="-135" as="sourcePoint" />
            <mxPoint x="75" y="-105.5" as="targetPoint" />
            <Array as="points">
              <mxPoint x="36" y="-95" />
            </Array>
          </mxGeometry>
        </mxCell>
        <mxCell id="dI03uZt3L8Q1S9gdigus-215" style="edgeStyle=none;curved=0;rounded=0;orthogonalLoop=1;jettySize=auto;html=1;exitX=0;exitY=0.75;exitDx=0;exitDy=0;exitPerimeter=0;fontSize=12;startSize=8;endSize=8;endArrow=none;endFill=0;" edge="1" parent="1" source="dI03uZt3L8Q1S9gdigus-206">
          <mxGeometry relative="1" as="geometry">
            <mxPoint x="33.73227378970296" y="-43.91803278688519" as="targetPoint" />
            <Array as="points">
              <mxPoint x="34" y="-5" />
            </Array>
          </mxGeometry>
        </mxCell>
        <mxCell id="dI03uZt3L8Q1S9gdigus-206" value="" style="verticalLabelPosition=bottom;shadow=0;dashed=0;align=center;html=1;verticalAlign=top;shape=mxgraph.electrical.logic_gates.logic_gate;operation=or;" vertex="1" parent="1">
          <mxGeometry x="88" y="-50" width="100" height="60" as="geometry" />
        </mxCell>
        <mxCell id="dI03uZt3L8Q1S9gdigus-209" value="" style="verticalLabelPosition=bottom;shadow=0;dashed=0;align=center;html=1;verticalAlign=top;shape=mxgraph.electrical.logic_gates.logic_gate;operation=and;negating=1;negSize=0.15;" vertex="1" parent="1">
          <mxGeometry x="85" y="56" width="100" height="60" as="geometry" />
        </mxCell>
        <mxCell id="dI03uZt3L8Q1S9gdigus-211" value="" style="endArrow=none;html=1;rounded=0;fontSize=12;startSize=8;endSize=8;curved=0;entryX=0;entryY=0.75;entryDx=0;entryDy=0;entryPerimeter=0;" edge="1" parent="1">
          <mxGeometry width="50" height="50" relative="1" as="geometry">
            <mxPoint x="34" y="61" as="sourcePoint" />
            <mxPoint x="86" y="101" as="targetPoint" />
            <Array as="points">
              <mxPoint x="34" y="101" />
            </Array>
          </mxGeometry>
        </mxCell>
        <mxCell id="dI03uZt3L8Q1S9gdigus-226" style="edgeStyle=none;curved=0;rounded=0;orthogonalLoop=1;jettySize=auto;html=1;exitX=0;exitY=0.75;exitDx=0;exitDy=0;exitPerimeter=0;fontSize=12;startSize=8;endSize=8;endArrow=none;endFill=0;" edge="1" parent="1" source="dI03uZt3L8Q1S9gdigus-216">
          <mxGeometry relative="1" as="geometry">
            <mxPoint x="34.262420004986666" y="255.6311710438829" as="targetPoint" />
            <Array as="points">
              <mxPoint x="34" y="299" />
            </Array>
          </mxGeometry>
        </mxCell>
        <mxCell id="dI03uZt3L8Q1S9gdigus-227" style="edgeStyle=none;curved=0;rounded=0;orthogonalLoop=1;jettySize=auto;html=1;exitX=0;exitY=0.25;exitDx=0;exitDy=0;exitPerimeter=0;fontSize=12;startSize=8;endSize=8;endArrow=none;endFill=0;jumpSize=16;jumpStyle=arc;" edge="1" parent="1" source="dI03uZt3L8Q1S9gdigus-216">
          <mxGeometry relative="1" as="geometry">
            <mxPoint x="-1" y="255" as="targetPoint" />
            <Array as="points">
              <mxPoint x="-1" y="269" />
            </Array>
          </mxGeometry>
        </mxCell>
        <mxCell id="dI03uZt3L8Q1S9gdigus-216" value="" style="verticalLabelPosition=bottom;shadow=0;dashed=0;align=center;html=1;verticalAlign=top;shape=mxgraph.electrical.logic_gates.logic_gate;operation=xor;" vertex="1" parent="1">
          <mxGeometry x="88" y="254" width="100" height="60" as="geometry" />
        </mxCell>
        <mxCell id="dI03uZt3L8Q1S9gdigus-231" style="edgeStyle=none;curved=0;rounded=0;orthogonalLoop=1;jettySize=auto;html=1;exitX=0;exitY=0.75;exitDx=0;exitDy=0;exitPerimeter=0;fontSize=12;startSize=8;endSize=8;endArrow=none;endFill=0;" edge="1" parent="1" source="dI03uZt3L8Q1S9gdigus-228">
          <mxGeometry relative="1" as="geometry">
            <mxPoint x="32.06059681285501" y="362.3332963423295" as="targetPoint" />
            <Array as="points">
              <mxPoint x="32" y="418" />
            </Array>
          </mxGeometry>
        </mxCell>
        <mxCell id="dI03uZt3L8Q1S9gdigus-228" value="" style="verticalLabelPosition=bottom;shadow=0;dashed=0;align=center;html=1;verticalAlign=top;shape=mxgraph.electrical.logic_gates.logic_gate;operation=xor;negating=1;negSize=0.15;" vertex="1" parent="1">
          <mxGeometry x="85" y="373" width="100" height="60" as="geometry" />
        </mxCell>
        <mxCell id="dI03uZt3L8Q1S9gdigus-236" style="edgeStyle=none;curved=0;rounded=0;orthogonalLoop=1;jettySize=auto;html=1;exitX=0;exitY=0.75;exitDx=0;exitDy=0;exitPerimeter=0;fontSize=12;startSize=8;endSize=8;endArrow=none;endFill=0;" edge="1" parent="1" source="dI03uZt3L8Q1S9gdigus-232">
          <mxGeometry relative="1" as="geometry">
            <mxPoint x="32.26885001890116" y="161.62366903981842" as="targetPoint" />
            <Array as="points">
              <mxPoint x="33" y="203" />
            </Array>
          </mxGeometry>
        </mxCell>
        <mxCell id="dI03uZt3L8Q1S9gdigus-232" value="" style="verticalLabelPosition=bottom;shadow=0;dashed=0;align=center;html=1;verticalAlign=top;shape=mxgraph.electrical.logic_gates.logic_gate;operation=or;negating=1;negSize=0.15;" vertex="1" parent="1">
          <mxGeometry x="88" y="158" width="100" height="60" as="geometry" />
        </mxCell>
        <mxCell id="dI03uZt3L8Q1S9gdigus-233" style="edgeStyle=none;curved=0;rounded=0;orthogonalLoop=1;jettySize=auto;html=1;exitX=0.25;exitY=0;exitDx=0;exitDy=0;fontSize=12;startSize=8;endSize=8;endArrow=none;endFill=0;" edge="1" parent="1">
          <mxGeometry relative="1" as="geometry">
            <mxPoint x="-190" y="151" as="targetPoint" />
            <mxPoint x="-2.740000000000009" y="162" as="sourcePoint" />
            <Array as="points">
              <mxPoint x="-2.740000000000009" y="151" />
            </Array>
          </mxGeometry>
        </mxCell>
        <mxCell id="dI03uZt3L8Q1S9gdigus-234" style="edgeStyle=none;curved=0;rounded=0;orthogonalLoop=1;jettySize=auto;html=1;exitX=0.75;exitY=0;exitDx=0;exitDy=0;fontSize=12;startSize=8;endSize=8;endArrow=none;endFill=0;jumpStyle=arc;jumpSize=16;" edge="1" parent="1">
          <mxGeometry relative="1" as="geometry">
            <mxPoint x="-227.9993044704861" y="135.00482611762158" as="targetPoint" />
            <mxPoint x="32.25999999999999" y="162" as="sourcePoint" />
            <Array as="points">
              <mxPoint x="32.25999999999999" y="135.19" />
            </Array>
          </mxGeometry>
        </mxCell>
        <mxCell id="dI03uZt3L8Q1S9gdigus-241" style="edgeStyle=none;curved=0;rounded=0;orthogonalLoop=1;jettySize=auto;html=1;exitX=1;exitY=0.5;exitDx=0;exitDy=0;entryX=0;entryY=0.18;entryDx=0;entryDy=0;entryPerimeter=0;fontSize=12;startSize=8;endSize=8;" edge="1" parent="1" source="dI03uZt3L8Q1S9gdigus-31" target="dI03uZt3L8Q1S9gdigus-12">
          <mxGeometry relative="1" as="geometry">
            <Array as="points">
              <mxPoint x="345" y="-262" />
              <mxPoint x="348" y="18" />
            </Array>
          </mxGeometry>
        </mxCell>
        <mxCell id="dI03uZt3L8Q1S9gdigus-242" style="edgeStyle=none;curved=0;rounded=0;orthogonalLoop=1;jettySize=auto;html=1;exitX=1;exitY=0.5;exitDx=0;exitDy=0;entryX=0;entryY=0.24;entryDx=0;entryDy=0;entryPerimeter=0;fontSize=12;startSize=8;endSize=8;" edge="1" parent="1" source="dI03uZt3L8Q1S9gdigus-32" target="dI03uZt3L8Q1S9gdigus-12">
          <mxGeometry relative="1" as="geometry">
            <Array as="points">
              <mxPoint x="293" y="-187" />
              <mxPoint x="291" y="33" />
            </Array>
          </mxGeometry>
        </mxCell>
        <mxCell id="dI03uZt3L8Q1S9gdigus-243" style="edgeStyle=none;curved=0;rounded=0;orthogonalLoop=1;jettySize=auto;html=1;exitX=1;exitY=0.5;exitDx=0;exitDy=0;exitPerimeter=0;entryX=0;entryY=0.29;entryDx=0;entryDy=0;entryPerimeter=0;fontSize=12;startSize=8;endSize=8;" edge="1" parent="1" source="dI03uZt3L8Q1S9gdigus-200" target="dI03uZt3L8Q1S9gdigus-12">
          <mxGeometry relative="1" as="geometry">
            <Array as="points">
              <mxPoint x="261" y="-108" />
              <mxPoint x="264" y="44" />
            </Array>
          </mxGeometry>
        </mxCell>
        <mxCell id="dI03uZt3L8Q1S9gdigus-246" style="edgeStyle=none;curved=0;rounded=0;orthogonalLoop=1;jettySize=auto;html=1;exitX=1;exitY=0.5;exitDx=0;exitDy=0;exitPerimeter=0;entryX=0;entryY=0.35;entryDx=0;entryDy=0;entryPerimeter=0;fontSize=12;startSize=8;endSize=8;" edge="1" parent="1" source="dI03uZt3L8Q1S9gdigus-206" target="dI03uZt3L8Q1S9gdigus-12">
          <mxGeometry relative="1" as="geometry">
            <Array as="points">
              <mxPoint x="240" y="-18" />
              <mxPoint x="242" y="63" />
            </Array>
          </mxGeometry>
        </mxCell>
        <mxCell id="dI03uZt3L8Q1S9gdigus-247" style="edgeStyle=none;curved=1;rounded=0;orthogonalLoop=1;jettySize=auto;html=1;exitX=1;exitY=0.5;exitDx=0;exitDy=0;exitPerimeter=0;entryX=0;entryY=0.41;entryDx=0;entryDy=0;entryPerimeter=0;fontSize=12;startSize=8;endSize=8;" edge="1" parent="1" source="dI03uZt3L8Q1S9gdigus-209" target="dI03uZt3L8Q1S9gdigus-12">
          <mxGeometry relative="1" as="geometry" />
        </mxCell>
        <mxCell id="dI03uZt3L8Q1S9gdigus-248" style="edgeStyle=none;curved=0;rounded=0;orthogonalLoop=1;jettySize=auto;html=1;exitX=1;exitY=0.5;exitDx=0;exitDy=0;exitPerimeter=0;entryX=0;entryY=0.47;entryDx=0;entryDy=0;entryPerimeter=0;fontSize=12;startSize=8;endSize=8;" edge="1" parent="1" source="dI03uZt3L8Q1S9gdigus-232" target="dI03uZt3L8Q1S9gdigus-12">
          <mxGeometry relative="1" as="geometry">
            <Array as="points">
              <mxPoint x="248" y="188" />
              <mxPoint x="248" y="102" />
            </Array>
          </mxGeometry>
        </mxCell>
        <mxCell id="dI03uZt3L8Q1S9gdigus-249" style="edgeStyle=none;curved=0;rounded=0;orthogonalLoop=1;jettySize=auto;html=1;exitX=1;exitY=0.5;exitDx=0;exitDy=0;exitPerimeter=0;entryX=0;entryY=0.53;entryDx=0;entryDy=0;entryPerimeter=0;fontSize=12;startSize=8;endSize=8;" edge="1" parent="1" source="dI03uZt3L8Q1S9gdigus-216" target="dI03uZt3L8Q1S9gdigus-12">
          <mxGeometry relative="1" as="geometry">
            <Array as="points">
              <mxPoint x="282" y="284" />
              <mxPoint x="282" y="121" />
            </Array>
          </mxGeometry>
        </mxCell>
        <mxCell id="dI03uZt3L8Q1S9gdigus-250" style="edgeStyle=none;curved=0;rounded=0;orthogonalLoop=1;jettySize=auto;html=1;exitX=1;exitY=0.5;exitDx=0;exitDy=0;exitPerimeter=0;entryX=0;entryY=0.59;entryDx=0;entryDy=0;entryPerimeter=0;fontSize=12;startSize=8;endSize=8;" edge="1" parent="1" source="dI03uZt3L8Q1S9gdigus-228" target="dI03uZt3L8Q1S9gdigus-12">
          <mxGeometry relative="1" as="geometry">
            <Array as="points">
              <mxPoint x="321" y="403" />
              <mxPoint x="323" y="140" />
            </Array>
          </mxGeometry>
        </mxCell>
        <mxCell id="dI03uZt3L8Q1S9gdigus-256" style="edgeStyle=none;curved=0;rounded=0;orthogonalLoop=1;jettySize=auto;html=1;exitX=1;exitY=0.25;exitDx=0;exitDy=0;entryX=0;entryY=0.65;entryDx=0;entryDy=0;entryPerimeter=0;fontSize=12;startSize=8;endSize=8;" edge="1" parent="1" source="dI03uZt3L8Q1S9gdigus-38" target="dI03uZt3L8Q1S9gdigus-12">
          <mxGeometry relative="1" as="geometry">
            <Array as="points">
              <mxPoint x="180" y="496" />
              <mxPoint x="351" y="496" />
              <mxPoint x="351" y="152" />
            </Array>
          </mxGeometry>
        </mxCell>
        <mxCell id="dI03uZt3L8Q1S9gdigus-257" style="edgeStyle=none;curved=0;rounded=0;orthogonalLoop=1;jettySize=auto;html=1;exitX=1;exitY=0.5;exitDx=0;exitDy=0;entryX=0;entryY=0.71;entryDx=0;entryDy=0;entryPerimeter=0;fontSize=12;startSize=8;endSize=8;" edge="1" parent="1" source="dI03uZt3L8Q1S9gdigus-38" target="dI03uZt3L8Q1S9gdigus-12">
          <mxGeometry relative="1" as="geometry">
            <Array as="points">
              <mxPoint x="361" y="504" />
              <mxPoint x="361" y="163" />
            </Array>
          </mxGeometry>
        </mxCell>
        <mxCell id="dI03uZt3L8Q1S9gdigus-258" style="edgeStyle=none;curved=0;rounded=0;orthogonalLoop=1;jettySize=auto;html=1;exitX=1;exitY=0.75;exitDx=0;exitDy=0;entryX=0;entryY=0.76;entryDx=0;entryDy=0;entryPerimeter=0;fontSize=12;startSize=8;endSize=8;" edge="1" parent="1" source="dI03uZt3L8Q1S9gdigus-38" target="dI03uZt3L8Q1S9gdigus-12">
          <mxGeometry relative="1" as="geometry">
            <Array as="points">
              <mxPoint x="371" y="516" />
              <mxPoint x="375" y="177" />
            </Array>
          </mxGeometry>
        </mxCell>
        <mxCell id="dI03uZt3L8Q1S9gdigus-260" style="edgeStyle=none;curved=0;rounded=0;orthogonalLoop=1;jettySize=auto;html=1;fontSize=12;startSize=8;endSize=8;entryX=0;entryY=0.94;entryDx=0;entryDy=0;entryPerimeter=0;strokeColor=none;jumpStyle=arc;jumpSize=16;" edge="1" parent="1" source="dI03uZt3L8Q1S9gdigus-259" target="dI03uZt3L8Q1S9gdigus-12">
          <mxGeometry relative="1" as="geometry">
            <mxPoint x="511.5000000000002" y="311.6110941569011" as="targetPoint" />
            <Array as="points">
              <mxPoint x="479" y="224" />
            </Array>
          </mxGeometry>
        </mxCell>
        <mxCell id="dI03uZt3L8Q1S9gdigus-259" value="&lt;b&gt;16&#39;b0&lt;/b&gt;" style="text;html=1;align=center;verticalAlign=middle;resizable=0;points=[];autosize=1;strokeColor=none;fillColor=none;fontSize=16;" vertex="1" parent="1">
          <mxGeometry x="440" y="532" width="58" height="31" as="geometry" />
        </mxCell>
        <mxCell id="dI03uZt3L8Q1S9gdigus-261" style="edgeStyle=none;curved=0;rounded=0;orthogonalLoop=1;jettySize=auto;html=1;entryX=0;entryY=0.94;entryDx=0;entryDy=0;entryPerimeter=0;fontSize=12;startSize=8;endSize=8;" edge="1" parent="1" source="dI03uZt3L8Q1S9gdigus-259" target="dI03uZt3L8Q1S9gdigus-12">
          <mxGeometry relative="1" as="geometry">
            <Array as="points">
              <mxPoint x="468" y="224" />
            </Array>
          </mxGeometry>
        </mxCell>
        <mxCell id="2SiB19FUKH7YSbYu40S--18" style="edgeStyle=none;curved=0;rounded=0;orthogonalLoop=1;jettySize=auto;html=1;exitX=0.25;exitY=1;exitDx=0;exitDy=0;fontSize=12;startSize=8;endSize=8;endArrow=none;endFill=0;" edge="1" parent="1" source="dI03uZt3L8Q1S9gdigus-265">
          <mxGeometry relative="1" as="geometry">
            <mxPoint x="1074" y="-338" as="targetPoint" />
            <Array as="points">
              <mxPoint x="17" y="-346" />
            </Array>
          </mxGeometry>
        </mxCell>
        <mxCell id="dI03uZt3L8Q1S9gdigus-265" value="Full Adder / Subtractor" style="rounded=0;whiteSpace=wrap;html=1;" vertex="1" parent="1">
          <mxGeometry x="-17" y="-509" width="136" height="112" as="geometry" />
        </mxCell>
        <mxCell id="2SiB19FUKH7YSbYu40S--1" value="" style="verticalLabelPosition=bottom;shadow=0;dashed=0;align=center;html=1;verticalAlign=top;shape=mxgraph.electrical.logic_gates.logic_gate;operation=xor;direction=south;" vertex="1" parent="1">
          <mxGeometry x="54" y="-654" width="60" height="100" as="geometry" />
        </mxCell>
        <mxCell id="2SiB19FUKH7YSbYu40S--3" style="edgeStyle=none;curved=1;rounded=0;orthogonalLoop=1;jettySize=auto;html=1;entryX=0;entryY=0.75;entryDx=0;entryDy=0;entryPerimeter=0;fontSize=12;startSize=8;endSize=8;endArrow=none;endFill=0;" edge="1" parent="1" target="2SiB19FUKH7YSbYu40S--1">
          <mxGeometry relative="1" as="geometry">
            <mxPoint x="69" y="-706" as="sourcePoint" />
          </mxGeometry>
        </mxCell>
        <mxCell id="2SiB19FUKH7YSbYu40S--8" style="edgeStyle=none;curved=1;rounded=0;orthogonalLoop=1;jettySize=auto;html=1;entryX=1;entryY=0.5;entryDx=0;entryDy=0;fontSize=12;startSize=8;endSize=8;endArrow=none;endFill=0;" edge="1" parent="1" source="2SiB19FUKH7YSbYu40S--4" target="dI03uZt3L8Q1S9gdigus-265">
          <mxGeometry relative="1" as="geometry" />
        </mxCell>
        <mxCell id="2SiB19FUKH7YSbYu40S--4" value="&lt;b&gt;ALU_FUN&lt;/b&gt;" style="text;html=1;align=center;verticalAlign=middle;resizable=0;points=[];autosize=1;strokeColor=none;fillColor=none;fontSize=16;" vertex="1" parent="1">
          <mxGeometry x="172" y="-469" width="93" height="31" as="geometry" />
        </mxCell>
        <mxCell id="2SiB19FUKH7YSbYu40S--7" style="edgeStyle=none;curved=1;rounded=0;orthogonalLoop=1;jettySize=auto;html=1;fontSize=12;startSize=8;endSize=8;endArrow=none;endFill=0;" edge="1" parent="1" source="2SiB19FUKH7YSbYu40S--5">
          <mxGeometry relative="1" as="geometry">
            <mxPoint x="574" y="216" as="targetPoint" />
          </mxGeometry>
        </mxCell>
        <mxCell id="2SiB19FUKH7YSbYu40S--5" value="&lt;b&gt;ALU_FUN&lt;/b&gt;" style="text;html=1;align=center;verticalAlign=middle;resizable=0;points=[];autosize=1;strokeColor=none;fillColor=none;fontSize=16;" vertex="1" parent="1">
          <mxGeometry x="527" y="318" width="93" height="31" as="geometry" />
        </mxCell>
        <mxCell id="2SiB19FUKH7YSbYu40S--9" style="edgeStyle=none;curved=0;rounded=0;orthogonalLoop=1;jettySize=auto;html=1;entryX=0;entryY=0.25;entryDx=0;entryDy=0;entryPerimeter=0;fontSize=12;startSize=8;endSize=8;endArrow=none;endFill=0;" edge="1" parent="1" source="2SiB19FUKH7YSbYu40S--4" target="2SiB19FUKH7YSbYu40S--1">
          <mxGeometry relative="1" as="geometry">
            <Array as="points">
              <mxPoint x="218" y="-705" />
              <mxPoint x="99" y="-706" />
            </Array>
          </mxGeometry>
        </mxCell>
        <mxCell id="2SiB19FUKH7YSbYu40S--11" style="edgeStyle=none;curved=1;rounded=0;orthogonalLoop=1;jettySize=auto;html=1;entryX=0.25;entryY=0;entryDx=0;entryDy=0;fontSize=12;startSize=8;endSize=8;endArrow=none;endFill=0;" edge="1" parent="1" target="dI03uZt3L8Q1S9gdigus-265">
          <mxGeometry relative="1" as="geometry">
            <mxPoint x="13" y="-688" as="sourcePoint" />
          </mxGeometry>
        </mxCell>
        <mxCell id="2SiB19FUKH7YSbYu40S--14" style="edgeStyle=none;curved=0;rounded=0;orthogonalLoop=1;jettySize=auto;html=1;entryX=0;entryY=0.06;entryDx=0;entryDy=0;entryPerimeter=0;fontSize=12;startSize=8;endSize=8;endArrow=classic;endFill=1;exitX=0.75;exitY=1;exitDx=0;exitDy=0;" edge="1" parent="1" source="dI03uZt3L8Q1S9gdigus-265" target="dI03uZt3L8Q1S9gdigus-12">
          <mxGeometry relative="1" as="geometry">
            <Array as="points">
              <mxPoint x="85" y="-363" />
              <mxPoint x="453" y="-363" />
              <mxPoint x="459" y="-8" />
            </Array>
          </mxGeometry>
        </mxCell>
        <mxCell id="2SiB19FUKH7YSbYu40S--17" value="" style="endArrow=classic;html=1;rounded=0;fontSize=12;startSize=8;endSize=8;curved=0;entryX=0;entryY=0.12;entryDx=0;entryDy=0;entryPerimeter=0;" edge="1" parent="1" target="dI03uZt3L8Q1S9gdigus-12">
          <mxGeometry width="50" height="50" relative="1" as="geometry">
            <mxPoint x="459" y="-13" as="sourcePoint" />
            <mxPoint x="269" y="-207" as="targetPoint" />
            <Array as="points">
              <mxPoint x="459" y="8" />
            </Array>
          </mxGeometry>
        </mxCell>
        <mxCell id="2SiB19FUKH7YSbYu40S--19" value="&lt;b&gt;Carry_flag&lt;/b&gt;" style="text;html=1;align=center;verticalAlign=middle;resizable=0;points=[];autosize=1;strokeColor=none;fillColor=none;fontSize=16;" vertex="1" parent="1">
          <mxGeometry x="1083" y="-354" width="97" height="31" as="geometry" />
        </mxCell>
        <mxCell id="dI03uZt3L8Q1S9gdigus-204" value="" style="endArrow=none;html=1;rounded=0;fontSize=12;startSize=8;endSize=8;curved=0;entryX=0;entryY=0.25;entryDx=0;entryDy=0;entryPerimeter=0;jumpStyle=arc;jumpSize=16;" edge="1" parent="1" target="dI03uZt3L8Q1S9gdigus-200">
          <mxGeometry width="50" height="50" relative="1" as="geometry">
            <mxPoint x="1" y="-134" as="sourcePoint" />
            <mxPoint x="3" y="-142" as="targetPoint" />
            <Array as="points">
              <mxPoint x="1" y="-125" />
            </Array>
          </mxGeometry>
        </mxCell>
        <mxCell id="dI03uZt3L8Q1S9gdigus-214" style="edgeStyle=none;curved=0;rounded=0;orthogonalLoop=1;jettySize=auto;html=1;exitX=0;exitY=0.25;exitDx=0;exitDy=0;exitPerimeter=0;fontSize=12;startSize=8;endSize=8;endArrow=none;endFill=0;jumpStyle=arc;jumpSize=16;" edge="1" parent="1" source="dI03uZt3L8Q1S9gdigus-206">
          <mxGeometry relative="1" as="geometry">
            <mxPoint x="-1" y="-43" as="targetPoint" />
            <Array as="points">
              <mxPoint x="-1" y="-35" />
              <mxPoint x="-1" y="-39" />
            </Array>
          </mxGeometry>
        </mxCell>
        <mxCell id="dI03uZt3L8Q1S9gdigus-210" value="" style="endArrow=none;html=1;rounded=0;fontSize=12;startSize=8;endSize=8;curved=0;entryX=0;entryY=0.25;entryDx=0;entryDy=0;entryPerimeter=0;jumpStyle=arc;jumpSize=16;" edge="1" parent="1">
          <mxGeometry width="50" height="50" relative="1" as="geometry">
            <mxPoint x="-1" y="62" as="sourcePoint" />
            <mxPoint x="86" y="71" as="targetPoint" />
            <Array as="points">
              <mxPoint x="-1" y="71" />
            </Array>
          </mxGeometry>
        </mxCell>
        <mxCell id="dI03uZt3L8Q1S9gdigus-235" style="edgeStyle=none;curved=0;rounded=0;orthogonalLoop=1;jettySize=auto;html=1;exitX=0;exitY=0.25;exitDx=0;exitDy=0;exitPerimeter=0;fontSize=12;startSize=8;endSize=8;endArrow=none;endFill=0;jumpStyle=arc;jumpSize=17;" edge="1" parent="1" source="dI03uZt3L8Q1S9gdigus-232">
          <mxGeometry relative="1" as="geometry">
            <mxPoint x="-2.376370337701701" y="161.6451416015625" as="targetPoint" />
            <Array as="points">
              <mxPoint x="-2" y="172" />
            </Array>
          </mxGeometry>
        </mxCell>
        <mxCell id="dI03uZt3L8Q1S9gdigus-229" style="edgeStyle=none;curved=0;rounded=0;orthogonalLoop=1;jettySize=auto;html=1;exitX=0;exitY=0.25;exitDx=0;exitDy=0;exitPerimeter=0;fontSize=12;startSize=8;endSize=8;endArrow=none;endFill=0;jumpStyle=arc;jumpSize=16;" edge="1" parent="1" source="dI03uZt3L8Q1S9gdigus-228">
          <mxGeometry relative="1" as="geometry">
            <mxPoint x="-3.393948641690372" y="362.939375443892" as="targetPoint" />
            <Array as="points">
              <mxPoint x="-3" y="388" />
            </Array>
          </mxGeometry>
        </mxCell>
        <mxCell id="2SiB19FUKH7YSbYu40S--20" style="edgeStyle=none;curved=1;rounded=0;orthogonalLoop=1;jettySize=auto;html=1;exitX=0.75;exitY=0;exitDx=0;exitDy=0;entryX=1;entryY=0.5;entryDx=0;entryDy=0;entryPerimeter=0;fontSize=12;startSize=8;endSize=8;endArrow=none;endFill=0;" edge="1" parent="1" source="dI03uZt3L8Q1S9gdigus-265" target="2SiB19FUKH7YSbYu40S--1">
          <mxGeometry relative="1" as="geometry" />
        </mxCell>
        <mxCell id="2SiB19FUKH7YSbYu40S--38" value="" style="group;movable=1;resizable=1;rotatable=1;deletable=1;editable=1;locked=0;connectable=1;points=[[0,0.06,0,0,0],[0,0.12,0,0,0],[0,0.18,0,0,0],[0,0.24,0,0,0],[0,0.29,0,0,0],[0,0.35,0,0,0],[0,0.41,0,0,0],[0,0.47,0,0,0],[0,0.53,0,0,0],[0,0.59,0,0,0],[0,0.65,0,0,0],[0,0.71,0,0,0],[0,0.76,0,0,0],[0,0.82,0,0,0],[0,0.88,0,0,0],[0,0.94,0,0,0],[0.5,1,0,0,0]];" vertex="1" connectable="0" parent="1">
          <mxGeometry x="872" y="473" width="103" height="264" as="geometry" />
        </mxCell>
        <mxCell id="2SiB19FUKH7YSbYu40S--39" value="" style="endArrow=none;html=1;rounded=0;fontSize=12;startSize=8;endSize=8;curved=1;" edge="1" parent="2SiB19FUKH7YSbYu40S--38">
          <mxGeometry width="50" height="50" relative="1" as="geometry">
            <mxPoint as="sourcePoint" />
            <mxPoint x="103.00000000000001" y="42.45226130653265" as="targetPoint" />
          </mxGeometry>
        </mxCell>
        <mxCell id="2SiB19FUKH7YSbYu40S--40" value="" style="endArrow=none;html=1;rounded=0;fontSize=12;startSize=8;endSize=8;curved=1;" edge="1" parent="2SiB19FUKH7YSbYu40S--38">
          <mxGeometry width="50" height="50" relative="1" as="geometry">
            <mxPoint x="1.4109589041095896" y="263.99999999999994" as="sourcePoint" />
            <mxPoint x="1.4109589041095896" as="targetPoint" />
          </mxGeometry>
        </mxCell>
        <mxCell id="2SiB19FUKH7YSbYu40S--41" value="" style="endArrow=none;html=1;rounded=0;fontSize=12;startSize=8;endSize=8;curved=1;" edge="1" parent="2SiB19FUKH7YSbYu40S--38">
          <mxGeometry width="50" height="50" relative="1" as="geometry">
            <mxPoint x="1.4109589041095896" y="262.6733668341714" as="sourcePoint" />
            <mxPoint x="103.00000000000001" y="220.22110552763874" as="targetPoint" />
          </mxGeometry>
        </mxCell>
        <mxCell id="2SiB19FUKH7YSbYu40S--42" value="" style="endArrow=none;html=1;rounded=0;fontSize=12;startSize=8;endSize=8;curved=1;" edge="1" parent="2SiB19FUKH7YSbYu40S--38">
          <mxGeometry width="50" height="50" relative="1" as="geometry">
            <mxPoint x="103.00000000000001" y="221.54773869346727" as="sourcePoint" />
            <mxPoint x="103.00000000000001" y="42.45226130653265" as="targetPoint" />
          </mxGeometry>
        </mxCell>
        <mxCell id="2SiB19FUKH7YSbYu40S--43" value="MUX&lt;div&gt;2 to 1&lt;/div&gt;" style="text;html=1;align=center;verticalAlign=middle;resizable=0;points=[];autosize=1;strokeColor=none;fillColor=none;fontSize=16;" vertex="1" parent="2SiB19FUKH7YSbYu40S--38">
          <mxGeometry x="23" y="112" width="58" height="50" as="geometry" />
        </mxCell>
        <mxCell id="2SiB19FUKH7YSbYu40S--46" value="&lt;b&gt;Comparator&lt;/b&gt;" style="rounded=0;whiteSpace=wrap;html=1;" vertex="1" parent="1">
          <mxGeometry x="515" y="1106" width="120" height="60" as="geometry" />
        </mxCell>
        <mxCell id="2SiB19FUKH7YSbYu40S--51" style="edgeStyle=none;curved=0;rounded=0;orthogonalLoop=1;jettySize=auto;html=1;entryX=0.5;entryY=1;entryDx=0;entryDy=0;fontSize=12;startSize=8;endSize=8;" edge="1" parent="1" source="2SiB19FUKH7YSbYu40S--47" target="2SiB19FUKH7YSbYu40S--46">
          <mxGeometry relative="1" as="geometry">
            <Array as="points">
              <mxPoint x="575" y="1277" />
            </Array>
          </mxGeometry>
        </mxCell>
        <mxCell id="2SiB19FUKH7YSbYu40S--52" style="edgeStyle=none;curved=0;rounded=0;orthogonalLoop=1;jettySize=auto;html=1;entryX=0.5;entryY=1;entryDx=0;entryDy=0;fontSize=12;startSize=8;endSize=8;exitX=0.314;exitY=0.107;exitDx=0;exitDy=0;exitPerimeter=0;" edge="1" parent="1" source="2SiB19FUKH7YSbYu40S--47" target="2SiB19FUKH7YSbYu40S--48">
          <mxGeometry relative="1" as="geometry">
            <Array as="points">
              <mxPoint x="903" y="1213" />
              <mxPoint x="846" y="1213" />
            </Array>
          </mxGeometry>
        </mxCell>
        <mxCell id="2SiB19FUKH7YSbYu40S--53" style="edgeStyle=none;curved=0;rounded=0;orthogonalLoop=1;jettySize=auto;html=1;entryX=0.5;entryY=1;entryDx=0;entryDy=0;fontSize=12;startSize=8;endSize=8;exitX=0.713;exitY=0.012;exitDx=0;exitDy=0;exitPerimeter=0;" edge="1" parent="1" target="2SiB19FUKH7YSbYu40S--49">
          <mxGeometry relative="1" as="geometry">
            <mxPoint x="959.3090000000002" y="1263.3719999999998" as="sourcePoint" />
            <Array as="points">
              <mxPoint x="959" y="1216" />
              <mxPoint x="1133" y="1216" />
            </Array>
          </mxGeometry>
        </mxCell>
        <mxCell id="2SiB19FUKH7YSbYu40S--54" style="edgeStyle=none;curved=0;rounded=0;orthogonalLoop=1;jettySize=auto;html=1;entryX=0.5;entryY=1;entryDx=0;entryDy=0;fontSize=12;startSize=8;endSize=8;exitX=1.008;exitY=0.442;exitDx=0;exitDy=0;exitPerimeter=0;" edge="1" parent="1" target="2SiB19FUKH7YSbYu40S--50">
          <mxGeometry relative="1" as="geometry">
            <mxPoint x="986.7440000000001" y="1276.7020000000002" as="sourcePoint" />
            <Array as="points">
              <mxPoint x="1408" y="1277" />
            </Array>
          </mxGeometry>
        </mxCell>
        <mxCell id="2SiB19FUKH7YSbYu40S--47" value="&lt;b&gt;ALU_FUN&lt;/b&gt;" style="text;html=1;align=center;verticalAlign=middle;resizable=0;points=[];autosize=1;strokeColor=none;fillColor=none;fontSize=16;" vertex="1" parent="1">
          <mxGeometry x="874" y="1261" width="93" height="31" as="geometry" />
        </mxCell>
        <mxCell id="rjzxUrOQmyywxVnxVAeF-3" style="edgeStyle=none;curved=0;rounded=0;orthogonalLoop=1;jettySize=auto;html=1;fontSize=12;startSize=8;endSize=8;entryX=0.181;entryY=0.343;entryDx=0;entryDy=0;entryPerimeter=0;endArrow=none;endFill=0;" edge="1" parent="1" source="2SiB19FUKH7YSbYu40S--48" target="rjzxUrOQmyywxVnxVAeF-4">
          <mxGeometry relative="1" as="geometry">
            <mxPoint x="846" y="985" as="targetPoint" />
            <Array as="points">
              <mxPoint x="846" y="1068" />
              <mxPoint x="911" y="1068" />
              <mxPoint x="911" y="985" />
            </Array>
          </mxGeometry>
        </mxCell>
        <mxCell id="2SiB19FUKH7YSbYu40S--48" value="&lt;b&gt;Comparator&lt;/b&gt;" style="rounded=0;whiteSpace=wrap;html=1;" vertex="1" parent="1">
          <mxGeometry x="785.5" y="1104" width="120" height="60" as="geometry" />
        </mxCell>
        <mxCell id="2SiB19FUKH7YSbYu40S--49" value="&lt;b&gt;Comparator&lt;/b&gt;" style="rounded=0;whiteSpace=wrap;html=1;" vertex="1" parent="1">
          <mxGeometry x="1073" y="1104" width="120" height="60" as="geometry" />
        </mxCell>
        <mxCell id="rjzxUrOQmyywxVnxVAeF-6" style="edgeStyle=none;curved=0;rounded=0;orthogonalLoop=1;jettySize=auto;html=1;fontSize=12;startSize=8;endSize=8;entryX=0.167;entryY=0.753;entryDx=0;entryDy=0;entryPerimeter=0;endArrow=none;endFill=0;" edge="1" parent="1" source="2SiB19FUKH7YSbYu40S--50" target="rjzxUrOQmyywxVnxVAeF-4">
          <mxGeometry relative="1" as="geometry">
            <mxPoint x="936.0000610351562" y="946.3334350585938" as="targetPoint" />
            <Array as="points">
              <mxPoint x="1408" y="998" />
              <mxPoint x="944" y="994" />
            </Array>
          </mxGeometry>
        </mxCell>
        <mxCell id="2SiB19FUKH7YSbYu40S--50" value="&lt;b&gt;Comparator&lt;/b&gt;" style="rounded=0;whiteSpace=wrap;html=1;" vertex="1" parent="1">
          <mxGeometry x="1348" y="1104" width="120" height="60" as="geometry" />
        </mxCell>
        <mxCell id="2SiB19FUKH7YSbYu40S--59" style="edgeStyle=none;curved=1;rounded=0;orthogonalLoop=1;jettySize=auto;html=1;entryX=0;entryY=0.5;entryDx=0;entryDy=0;fontSize=12;startSize=8;endSize=8;" edge="1" parent="1" source="2SiB19FUKH7YSbYu40S--55" target="2SiB19FUKH7YSbYu40S--46">
          <mxGeometry relative="1" as="geometry" />
        </mxCell>
        <mxCell id="2SiB19FUKH7YSbYu40S--55" value="4&#39;b0000" style="text;html=1;align=center;verticalAlign=middle;resizable=0;points=[];autosize=1;strokeColor=none;fillColor=none;fontSize=16;" vertex="1" parent="1">
          <mxGeometry x="393" y="1120.5" width="74" height="31" as="geometry" />
        </mxCell>
        <mxCell id="2SiB19FUKH7YSbYu40S--60" style="edgeStyle=none;curved=1;rounded=0;orthogonalLoop=1;jettySize=auto;html=1;fontSize=12;startSize=8;endSize=8;" edge="1" parent="1" source="2SiB19FUKH7YSbYu40S--56" target="2SiB19FUKH7YSbYu40S--48">
          <mxGeometry relative="1" as="geometry" />
        </mxCell>
        <mxCell id="2SiB19FUKH7YSbYu40S--56" value="4&#39;b0001" style="text;html=1;align=center;verticalAlign=middle;resizable=0;points=[];autosize=1;strokeColor=none;fillColor=none;fontSize=16;" vertex="1" parent="1">
          <mxGeometry x="673" y="1118.5" width="74" height="31" as="geometry" />
        </mxCell>
        <mxCell id="2SiB19FUKH7YSbYu40S--61" style="edgeStyle=none;curved=1;rounded=0;orthogonalLoop=1;jettySize=auto;html=1;entryX=0;entryY=0.5;entryDx=0;entryDy=0;fontSize=12;startSize=8;endSize=8;" edge="1" parent="1" target="2SiB19FUKH7YSbYu40S--49">
          <mxGeometry relative="1" as="geometry">
            <mxPoint x="1024" y="1134" as="sourcePoint" />
          </mxGeometry>
        </mxCell>
        <mxCell id="2SiB19FUKH7YSbYu40S--57" value="4&#39;b0010" style="text;html=1;align=center;verticalAlign=middle;resizable=0;points=[];autosize=1;strokeColor=none;fillColor=none;fontSize=16;" vertex="1" parent="1">
          <mxGeometry x="944.5" y="1118.5" width="74" height="31" as="geometry" />
        </mxCell>
        <mxCell id="2SiB19FUKH7YSbYu40S--62" style="edgeStyle=none;curved=1;rounded=0;orthogonalLoop=1;jettySize=auto;html=1;fontSize=12;startSize=8;endSize=8;" edge="1" parent="1" source="2SiB19FUKH7YSbYu40S--58" target="2SiB19FUKH7YSbYu40S--50">
          <mxGeometry relative="1" as="geometry" />
        </mxCell>
        <mxCell id="2SiB19FUKH7YSbYu40S--58" value="4&#39;b0011" style="text;html=1;align=center;verticalAlign=middle;resizable=0;points=[];autosize=1;strokeColor=none;fillColor=none;fontSize=16;" vertex="1" parent="1">
          <mxGeometry x="1247" y="1120.5" width="73" height="31" as="geometry" />
        </mxCell>
        <mxCell id="rjzxUrOQmyywxVnxVAeF-2" style="edgeStyle=none;curved=0;rounded=0;orthogonalLoop=1;jettySize=auto;html=1;exitX=0.5;exitY=0;exitDx=0;exitDy=0;fontSize=12;startSize=8;endSize=8;entryX=0.133;entryY=0.197;entryDx=0;entryDy=0;entryPerimeter=0;endArrow=none;endFill=0;" edge="1" parent="1" source="2SiB19FUKH7YSbYu40S--46" target="rjzxUrOQmyywxVnxVAeF-4">
          <mxGeometry relative="1" as="geometry">
            <mxPoint x="897.1890000000001" y="977.0360000000001" as="targetPoint" />
            <Array as="points">
              <mxPoint x="575" y="1032" />
              <mxPoint x="721" y="1032" />
              <mxPoint x="901" y="1034" />
            </Array>
          </mxGeometry>
        </mxCell>
        <mxCell id="rjzxUrOQmyywxVnxVAeF-4" value="" style="shape=xor;whiteSpace=wrap;html=1;direction=north;points=[[0.1,0.93,0,0,0],[0.25,0.5,0,0,0],[0.28,0.8,0,0,0],[0.7,0.1,0,0,0],[0.7,0.9,0,0,0],[0.72,0.8,0,0,0],[0.9,0.93,0,0,0],[1,0.5,0,0,0]];" vertex="1" parent="1">
          <mxGeometry x="883.4960000000001" y="887.002" width="80" height="60" as="geometry" />
        </mxCell>
        <mxCell id="rjzxUrOQmyywxVnxVAeF-5" style="edgeStyle=none;curved=0;rounded=0;orthogonalLoop=1;jettySize=auto;html=1;entryX=0.25;entryY=0.5;entryDx=0;entryDy=0;entryPerimeter=0;fontSize=12;startSize=8;endSize=8;endArrow=none;endFill=0;" edge="1" parent="1" source="2SiB19FUKH7YSbYu40S--49" target="rjzxUrOQmyywxVnxVAeF-4">
          <mxGeometry relative="1" as="geometry">
            <Array as="points">
              <mxPoint x="1133" y="1047" />
              <mxPoint x="926" y="1045" />
            </Array>
          </mxGeometry>
        </mxCell>
        <mxCell id="rjzxUrOQmyywxVnxVAeF-7" style="edgeStyle=none;curved=1;rounded=0;orthogonalLoop=1;jettySize=auto;html=1;fontSize=12;startSize=8;endSize=8;endArrow=none;endFill=0;" edge="1" parent="1" source="rjzxUrOQmyywxVnxVAeF-4">
          <mxGeometry relative="1" as="geometry">
            <mxPoint x="924" y="714" as="targetPoint" />
          </mxGeometry>
        </mxCell>
        <mxCell id="rjzxUrOQmyywxVnxVAeF-8" value="&lt;b&gt;1&#39;b0&lt;/b&gt;" style="text;html=1;align=center;verticalAlign=middle;resizable=0;points=[];autosize=1;strokeColor=none;fillColor=none;fontSize=16;" vertex="1" parent="1">
          <mxGeometry x="763" y="534" width="49" height="31" as="geometry" />
        </mxCell>
        <mxCell id="rjzxUrOQmyywxVnxVAeF-11" style="edgeStyle=none;curved=1;rounded=0;orthogonalLoop=1;jettySize=auto;html=1;fontSize=12;startSize=8;endSize=8;entryX=0;entryY=0.65;entryDx=0;entryDy=0;entryPerimeter=0;" edge="1" parent="1" source="rjzxUrOQmyywxVnxVAeF-9" target="2SiB19FUKH7YSbYu40S--38">
          <mxGeometry relative="1" as="geometry">
            <mxPoint x="849.4761614118306" y="646.5" as="targetPoint" />
          </mxGeometry>
        </mxCell>
        <mxCell id="rjzxUrOQmyywxVnxVAeF-9" value="&lt;b&gt;1&#39;b1&lt;/b&gt;" style="text;html=1;align=center;verticalAlign=middle;resizable=0;points=[];autosize=1;strokeColor=none;fillColor=none;fontSize=16;" vertex="1" parent="1">
          <mxGeometry x="763" y="629" width="49" height="31" as="geometry" />
        </mxCell>
        <mxCell id="rjzxUrOQmyywxVnxVAeF-10" style="edgeStyle=none;curved=1;rounded=0;orthogonalLoop=1;jettySize=auto;html=1;entryX=0;entryY=0.29;entryDx=0;entryDy=0;entryPerimeter=0;fontSize=12;startSize=8;endSize=8;" edge="1" parent="1" source="rjzxUrOQmyywxVnxVAeF-8" target="2SiB19FUKH7YSbYu40S--38">
          <mxGeometry relative="1" as="geometry" />
        </mxCell>
        <mxCell id="rjzxUrOQmyywxVnxVAeF-14" value="&lt;b&gt;Arith_flag&lt;/b&gt;" style="text;html=1;align=center;verticalAlign=middle;resizable=0;points=[];autosize=1;strokeColor=none;fillColor=none;fontSize=16;" vertex="1" parent="1">
          <mxGeometry x="1123.5" y="591.5" width="93" height="31" as="geometry" />
        </mxCell>
        <mxCell id="rjzxUrOQmyywxVnxVAeF-15" style="edgeStyle=none;curved=1;rounded=0;orthogonalLoop=1;jettySize=auto;html=1;entryX=-0.008;entryY=0.466;entryDx=0;entryDy=0;entryPerimeter=0;fontSize=12;startSize=8;endSize=8;endArrow=none;endFill=0;" edge="1" parent="1" source="2SiB19FUKH7YSbYu40S--38" target="rjzxUrOQmyywxVnxVAeF-14">
          <mxGeometry relative="1" as="geometry" />
        </mxCell>
        <mxCell id="rjzxUrOQmyywxVnxVAeF-16" value="" style="group;movable=1;resizable=1;rotatable=1;deletable=1;editable=1;locked=0;connectable=1;points=[[0,0.06,0,0,0],[0,0.12,0,0,0],[0,0.18,0,0,0],[0,0.24,0,0,0],[0,0.29,0,0,0],[0,0.35,0,0,0],[0,0.41,0,0,0],[0,0.47,0,0,0],[0,0.53,0,0,0],[0,0.59,0,0,0],[0,0.65,0,0,0],[0,0.71,0,0,0],[0,0.76,0,0,0],[0,0.82,0,0,0],[0,0.88,0,0,0],[0,0.94,0,0,0],[0.5,1,0,0,0]];" vertex="1" connectable="0" parent="1">
          <mxGeometry x="883" y="1446" width="103" height="264" as="geometry" />
        </mxCell>
        <mxCell id="rjzxUrOQmyywxVnxVAeF-17" value="" style="endArrow=none;html=1;rounded=0;fontSize=12;startSize=8;endSize=8;curved=1;" edge="1" parent="rjzxUrOQmyywxVnxVAeF-16">
          <mxGeometry width="50" height="50" relative="1" as="geometry">
            <mxPoint as="sourcePoint" />
            <mxPoint x="103.00000000000001" y="42.45226130653265" as="targetPoint" />
          </mxGeometry>
        </mxCell>
        <mxCell id="rjzxUrOQmyywxVnxVAeF-18" value="" style="endArrow=none;html=1;rounded=0;fontSize=12;startSize=8;endSize=8;curved=1;" edge="1" parent="rjzxUrOQmyywxVnxVAeF-16">
          <mxGeometry width="50" height="50" relative="1" as="geometry">
            <mxPoint x="1.4109589041095896" y="263.99999999999994" as="sourcePoint" />
            <mxPoint x="1.4109589041095896" as="targetPoint" />
          </mxGeometry>
        </mxCell>
        <mxCell id="rjzxUrOQmyywxVnxVAeF-19" value="" style="endArrow=none;html=1;rounded=0;fontSize=12;startSize=8;endSize=8;curved=1;" edge="1" parent="rjzxUrOQmyywxVnxVAeF-16">
          <mxGeometry width="50" height="50" relative="1" as="geometry">
            <mxPoint x="1.4109589041095896" y="262.6733668341714" as="sourcePoint" />
            <mxPoint x="103.00000000000001" y="220.22110552763874" as="targetPoint" />
          </mxGeometry>
        </mxCell>
        <mxCell id="rjzxUrOQmyywxVnxVAeF-20" value="" style="endArrow=none;html=1;rounded=0;fontSize=12;startSize=8;endSize=8;curved=1;" edge="1" parent="rjzxUrOQmyywxVnxVAeF-16">
          <mxGeometry width="50" height="50" relative="1" as="geometry">
            <mxPoint x="103.00000000000001" y="221.54773869346727" as="sourcePoint" />
            <mxPoint x="103.00000000000001" y="42.45226130653265" as="targetPoint" />
          </mxGeometry>
        </mxCell>
        <mxCell id="rjzxUrOQmyywxVnxVAeF-21" value="MUX&lt;div&gt;2 to 1&lt;/div&gt;" style="text;html=1;align=center;verticalAlign=middle;resizable=0;points=[];autosize=1;strokeColor=none;fillColor=none;fontSize=16;" vertex="1" parent="rjzxUrOQmyywxVnxVAeF-16">
          <mxGeometry x="23" y="112" width="58" height="50" as="geometry" />
        </mxCell>
        <mxCell id="rjzxUrOQmyywxVnxVAeF-22" value="&lt;b&gt;Comparator&lt;/b&gt;" style="rounded=0;whiteSpace=wrap;html=1;" vertex="1" parent="1">
          <mxGeometry x="526" y="2079" width="120" height="60" as="geometry" />
        </mxCell>
        <mxCell id="rjzxUrOQmyywxVnxVAeF-23" style="edgeStyle=none;curved=0;rounded=0;orthogonalLoop=1;jettySize=auto;html=1;entryX=0.5;entryY=1;entryDx=0;entryDy=0;fontSize=12;startSize=8;endSize=8;" edge="1" parent="1" source="rjzxUrOQmyywxVnxVAeF-27" target="rjzxUrOQmyywxVnxVAeF-22">
          <mxGeometry relative="1" as="geometry">
            <Array as="points">
              <mxPoint x="586" y="2250" />
            </Array>
          </mxGeometry>
        </mxCell>
        <mxCell id="rjzxUrOQmyywxVnxVAeF-24" style="edgeStyle=none;curved=0;rounded=0;orthogonalLoop=1;jettySize=auto;html=1;entryX=0.5;entryY=1;entryDx=0;entryDy=0;fontSize=12;startSize=8;endSize=8;exitX=0.314;exitY=0.107;exitDx=0;exitDy=0;exitPerimeter=0;" edge="1" parent="1" source="rjzxUrOQmyywxVnxVAeF-27" target="rjzxUrOQmyywxVnxVAeF-29">
          <mxGeometry relative="1" as="geometry">
            <Array as="points">
              <mxPoint x="914" y="2186" />
              <mxPoint x="857" y="2186" />
            </Array>
          </mxGeometry>
        </mxCell>
        <mxCell id="rjzxUrOQmyywxVnxVAeF-25" style="edgeStyle=none;curved=0;rounded=0;orthogonalLoop=1;jettySize=auto;html=1;entryX=0.5;entryY=1;entryDx=0;entryDy=0;fontSize=12;startSize=8;endSize=8;exitX=0.713;exitY=0.012;exitDx=0;exitDy=0;exitPerimeter=0;" edge="1" parent="1" target="rjzxUrOQmyywxVnxVAeF-30">
          <mxGeometry relative="1" as="geometry">
            <mxPoint x="970.3090000000002" y="2236.372" as="sourcePoint" />
            <Array as="points">
              <mxPoint x="970" y="2189" />
              <mxPoint x="1144" y="2189" />
            </Array>
          </mxGeometry>
        </mxCell>
        <mxCell id="rjzxUrOQmyywxVnxVAeF-26" style="edgeStyle=none;curved=0;rounded=0;orthogonalLoop=1;jettySize=auto;html=1;entryX=0.5;entryY=1;entryDx=0;entryDy=0;fontSize=12;startSize=8;endSize=8;exitX=1.008;exitY=0.442;exitDx=0;exitDy=0;exitPerimeter=0;" edge="1" parent="1" target="rjzxUrOQmyywxVnxVAeF-32">
          <mxGeometry relative="1" as="geometry">
            <mxPoint x="997.7440000000001" y="2249.702" as="sourcePoint" />
            <Array as="points">
              <mxPoint x="1419" y="2250" />
            </Array>
          </mxGeometry>
        </mxCell>
        <mxCell id="rjzxUrOQmyywxVnxVAeF-126" style="edgeStyle=none;curved=0;rounded=0;orthogonalLoop=1;jettySize=auto;html=1;entryX=0.5;entryY=1;entryDx=0;entryDy=0;fontSize=12;startSize=8;endSize=8;" edge="1" parent="1" source="rjzxUrOQmyywxVnxVAeF-27" target="rjzxUrOQmyywxVnxVAeF-122">
          <mxGeometry relative="1" as="geometry">
            <Array as="points">
              <mxPoint x="1662" y="2250" />
            </Array>
          </mxGeometry>
        </mxCell>
        <mxCell id="rjzxUrOQmyywxVnxVAeF-27" value="&lt;b&gt;ALU_FUN&lt;/b&gt;" style="text;html=1;align=center;verticalAlign=middle;resizable=0;points=[];autosize=1;strokeColor=none;fillColor=none;fontSize=16;" vertex="1" parent="1">
          <mxGeometry x="885" y="2234" width="93" height="31" as="geometry" />
        </mxCell>
        <mxCell id="rjzxUrOQmyywxVnxVAeF-28" style="edgeStyle=none;curved=0;rounded=0;orthogonalLoop=1;jettySize=auto;html=1;fontSize=12;startSize=8;endSize=8;entryX=0.181;entryY=0.343;entryDx=0;entryDy=0;entryPerimeter=0;endArrow=none;endFill=0;" edge="1" parent="1" source="rjzxUrOQmyywxVnxVAeF-29" target="rjzxUrOQmyywxVnxVAeF-42">
          <mxGeometry relative="1" as="geometry">
            <mxPoint x="857" y="1958" as="targetPoint" />
            <Array as="points">
              <mxPoint x="857" y="2041" />
              <mxPoint x="922" y="2041" />
              <mxPoint x="922" y="1958" />
            </Array>
          </mxGeometry>
        </mxCell>
        <mxCell id="rjzxUrOQmyywxVnxVAeF-29" value="&lt;b&gt;Comparator&lt;/b&gt;" style="rounded=0;whiteSpace=wrap;html=1;" vertex="1" parent="1">
          <mxGeometry x="796.5" y="2077" width="120" height="60" as="geometry" />
        </mxCell>
        <mxCell id="rjzxUrOQmyywxVnxVAeF-30" value="&lt;b&gt;Comparator&lt;/b&gt;" style="rounded=0;whiteSpace=wrap;html=1;" vertex="1" parent="1">
          <mxGeometry x="1084" y="2077" width="120" height="60" as="geometry" />
        </mxCell>
        <mxCell id="rjzxUrOQmyywxVnxVAeF-31" style="edgeStyle=none;curved=0;rounded=0;orthogonalLoop=1;jettySize=auto;html=1;fontSize=12;startSize=8;endSize=8;entryX=0.206;entryY=0.654;entryDx=0;entryDy=0;entryPerimeter=0;endArrow=none;endFill=0;" edge="1" parent="1" source="rjzxUrOQmyywxVnxVAeF-32" target="rjzxUrOQmyywxVnxVAeF-42">
          <mxGeometry relative="1" as="geometry">
            <mxPoint x="947.0000610351562" y="1919.3334350585938" as="targetPoint" />
            <Array as="points">
              <mxPoint x="1419" y="1971" />
              <mxPoint x="947" y="1967" />
            </Array>
          </mxGeometry>
        </mxCell>
        <mxCell id="rjzxUrOQmyywxVnxVAeF-32" value="&lt;b&gt;Comparator&lt;/b&gt;" style="rounded=0;whiteSpace=wrap;html=1;" vertex="1" parent="1">
          <mxGeometry x="1359" y="2077" width="120" height="60" as="geometry" />
        </mxCell>
        <mxCell id="rjzxUrOQmyywxVnxVAeF-121" style="edgeStyle=none;curved=1;rounded=0;orthogonalLoop=1;jettySize=auto;html=1;entryX=0;entryY=0.5;entryDx=0;entryDy=0;fontSize=12;startSize=8;endSize=8;" edge="1" parent="1" source="rjzxUrOQmyywxVnxVAeF-34" target="rjzxUrOQmyywxVnxVAeF-22">
          <mxGeometry relative="1" as="geometry" />
        </mxCell>
        <mxCell id="rjzxUrOQmyywxVnxVAeF-34" value="4&#39;b0100" style="text;html=1;align=center;verticalAlign=middle;resizable=0;points=[];autosize=1;strokeColor=none;fillColor=none;fontSize=16;" vertex="1" parent="1">
          <mxGeometry x="395" y="2091.5" width="74" height="31" as="geometry" />
        </mxCell>
        <mxCell id="rjzxUrOQmyywxVnxVAeF-35" style="edgeStyle=none;curved=1;rounded=0;orthogonalLoop=1;jettySize=auto;html=1;fontSize=12;startSize=8;endSize=8;" edge="1" parent="1" source="rjzxUrOQmyywxVnxVAeF-36" target="rjzxUrOQmyywxVnxVAeF-29">
          <mxGeometry relative="1" as="geometry" />
        </mxCell>
        <mxCell id="rjzxUrOQmyywxVnxVAeF-36" value="4&#39;b0101" style="text;html=1;align=center;verticalAlign=middle;resizable=0;points=[];autosize=1;strokeColor=none;fillColor=none;fontSize=16;" vertex="1" parent="1">
          <mxGeometry x="684" y="2091.5" width="74" height="31" as="geometry" />
        </mxCell>
        <mxCell id="rjzxUrOQmyywxVnxVAeF-37" style="edgeStyle=none;curved=1;rounded=0;orthogonalLoop=1;jettySize=auto;html=1;entryX=0;entryY=0.5;entryDx=0;entryDy=0;fontSize=12;startSize=8;endSize=8;" edge="1" parent="1" target="rjzxUrOQmyywxVnxVAeF-30">
          <mxGeometry relative="1" as="geometry">
            <mxPoint x="1035" y="2107" as="sourcePoint" />
          </mxGeometry>
        </mxCell>
        <mxCell id="rjzxUrOQmyywxVnxVAeF-38" value="4&#39;b0110" style="text;html=1;align=center;verticalAlign=middle;resizable=0;points=[];autosize=1;strokeColor=none;fillColor=none;fontSize=16;" vertex="1" parent="1">
          <mxGeometry x="956.5" y="2091.5" width="73" height="31" as="geometry" />
        </mxCell>
        <mxCell id="rjzxUrOQmyywxVnxVAeF-39" style="edgeStyle=none;curved=1;rounded=0;orthogonalLoop=1;jettySize=auto;html=1;fontSize=12;startSize=8;endSize=8;" edge="1" parent="1" source="rjzxUrOQmyywxVnxVAeF-40" target="rjzxUrOQmyywxVnxVAeF-32">
          <mxGeometry relative="1" as="geometry" />
        </mxCell>
        <mxCell id="rjzxUrOQmyywxVnxVAeF-40" value="4&#39;b0111" style="text;html=1;align=center;verticalAlign=middle;resizable=0;points=[];autosize=1;strokeColor=none;fillColor=none;fontSize=16;" vertex="1" parent="1">
          <mxGeometry x="1259" y="2093.5" width="72" height="31" as="geometry" />
        </mxCell>
        <mxCell id="rjzxUrOQmyywxVnxVAeF-41" style="edgeStyle=none;curved=0;rounded=0;orthogonalLoop=1;jettySize=auto;html=1;exitX=0.5;exitY=0;exitDx=0;exitDy=0;fontSize=12;startSize=8;endSize=8;entryX=0.133;entryY=0.197;entryDx=0;entryDy=0;entryPerimeter=0;endArrow=none;endFill=0;" edge="1" parent="1" source="rjzxUrOQmyywxVnxVAeF-22" target="rjzxUrOQmyywxVnxVAeF-42">
          <mxGeometry relative="1" as="geometry">
            <mxPoint x="908.1890000000001" y="1950.036" as="targetPoint" />
            <Array as="points">
              <mxPoint x="586" y="2005" />
              <mxPoint x="732" y="2005" />
              <mxPoint x="912" y="2007" />
            </Array>
          </mxGeometry>
        </mxCell>
        <mxCell id="rjzxUrOQmyywxVnxVAeF-42" value="" style="shape=xor;whiteSpace=wrap;html=1;direction=north;points=[[0.1,0.93,0,0,0],[0.25,0.5,0,0,0],[0.28,0.8,0,0,0],[0.7,0.1,0,0,0],[0.7,0.9,0,0,0],[0.72,0.8,0,0,0],[0.9,0.93,0,0,0],[1,0.5,0,0,0]];" vertex="1" parent="1">
          <mxGeometry x="894.4960000000001" y="1860.002" width="80" height="60" as="geometry" />
        </mxCell>
        <mxCell id="rjzxUrOQmyywxVnxVAeF-43" style="edgeStyle=none;curved=0;rounded=0;orthogonalLoop=1;jettySize=auto;html=1;entryX=0.25;entryY=0.5;entryDx=0;entryDy=0;entryPerimeter=0;fontSize=12;startSize=8;endSize=8;endArrow=none;endFill=0;" edge="1" parent="1" source="rjzxUrOQmyywxVnxVAeF-30" target="rjzxUrOQmyywxVnxVAeF-42">
          <mxGeometry relative="1" as="geometry">
            <Array as="points">
              <mxPoint x="1144" y="2020" />
              <mxPoint x="937" y="2018" />
            </Array>
          </mxGeometry>
        </mxCell>
        <mxCell id="rjzxUrOQmyywxVnxVAeF-44" style="edgeStyle=none;curved=1;rounded=0;orthogonalLoop=1;jettySize=auto;html=1;fontSize=12;startSize=8;endSize=8;endArrow=none;endFill=0;" edge="1" parent="1" source="rjzxUrOQmyywxVnxVAeF-42">
          <mxGeometry relative="1" as="geometry">
            <mxPoint x="935" y="1687" as="targetPoint" />
          </mxGeometry>
        </mxCell>
        <mxCell id="rjzxUrOQmyywxVnxVAeF-45" value="&lt;b&gt;1&#39;b0&lt;/b&gt;" style="text;html=1;align=center;verticalAlign=middle;resizable=0;points=[];autosize=1;strokeColor=none;fillColor=none;fontSize=16;" vertex="1" parent="1">
          <mxGeometry x="774" y="1507" width="49" height="31" as="geometry" />
        </mxCell>
        <mxCell id="rjzxUrOQmyywxVnxVAeF-46" style="edgeStyle=none;curved=1;rounded=0;orthogonalLoop=1;jettySize=auto;html=1;fontSize=12;startSize=8;endSize=8;entryX=0;entryY=0.65;entryDx=0;entryDy=0;entryPerimeter=0;" edge="1" parent="1" source="rjzxUrOQmyywxVnxVAeF-47" target="rjzxUrOQmyywxVnxVAeF-16">
          <mxGeometry relative="1" as="geometry">
            <mxPoint x="860.4761614118306" y="1619.5" as="targetPoint" />
          </mxGeometry>
        </mxCell>
        <mxCell id="rjzxUrOQmyywxVnxVAeF-47" value="&lt;b&gt;1&#39;b1&lt;/b&gt;" style="text;html=1;align=center;verticalAlign=middle;resizable=0;points=[];autosize=1;strokeColor=none;fillColor=none;fontSize=16;" vertex="1" parent="1">
          <mxGeometry x="774" y="1602" width="49" height="31" as="geometry" />
        </mxCell>
        <mxCell id="rjzxUrOQmyywxVnxVAeF-48" style="edgeStyle=none;curved=1;rounded=0;orthogonalLoop=1;jettySize=auto;html=1;entryX=0;entryY=0.29;entryDx=0;entryDy=0;entryPerimeter=0;fontSize=12;startSize=8;endSize=8;" edge="1" parent="1" source="rjzxUrOQmyywxVnxVAeF-45" target="rjzxUrOQmyywxVnxVAeF-16">
          <mxGeometry relative="1" as="geometry" />
        </mxCell>
        <mxCell id="rjzxUrOQmyywxVnxVAeF-49" value="&lt;b&gt;Logic_flag&lt;/b&gt;" style="text;html=1;align=center;verticalAlign=middle;resizable=0;points=[];autosize=1;strokeColor=none;fillColor=none;fontSize=16;" vertex="1" parent="1">
          <mxGeometry x="1132.5" y="1564.5" width="98" height="31" as="geometry" />
        </mxCell>
        <mxCell id="rjzxUrOQmyywxVnxVAeF-50" style="edgeStyle=none;curved=1;rounded=0;orthogonalLoop=1;jettySize=auto;html=1;entryX=-0.008;entryY=0.466;entryDx=0;entryDy=0;entryPerimeter=0;fontSize=12;startSize=8;endSize=8;endArrow=none;endFill=0;" edge="1" parent="1" source="rjzxUrOQmyywxVnxVAeF-16" target="rjzxUrOQmyywxVnxVAeF-49">
          <mxGeometry relative="1" as="geometry" />
        </mxCell>
        <mxCell id="rjzxUrOQmyywxVnxVAeF-51" value="" style="group;movable=1;resizable=1;rotatable=1;deletable=1;editable=1;locked=0;connectable=1;points=[[0,0.06,0,0,0],[0,0.12,0,0,0],[0,0.18,0,0,0],[0,0.24,0,0,0],[0,0.29,0,0,0],[0,0.35,0,0,0],[0,0.41,0,0,0],[0,0.47,0,0,0],[0,0.53,0,0,0],[0,0.59,0,0,0],[0,0.65,0,0,0],[0,0.71,0,0,0],[0,0.76,0,0,0],[0,0.82,0,0,0],[0,0.88,0,0,0],[0,0.94,0,0,0],[0.5,1,0,0,0]];" vertex="1" connectable="0" parent="1">
          <mxGeometry x="-384" y="1434" width="103" height="264" as="geometry" />
        </mxCell>
        <mxCell id="rjzxUrOQmyywxVnxVAeF-52" value="" style="endArrow=none;html=1;rounded=0;fontSize=12;startSize=8;endSize=8;curved=1;" edge="1" parent="rjzxUrOQmyywxVnxVAeF-51">
          <mxGeometry width="50" height="50" relative="1" as="geometry">
            <mxPoint as="sourcePoint" />
            <mxPoint x="103.00000000000001" y="42.45226130653265" as="targetPoint" />
          </mxGeometry>
        </mxCell>
        <mxCell id="rjzxUrOQmyywxVnxVAeF-53" value="" style="endArrow=none;html=1;rounded=0;fontSize=12;startSize=8;endSize=8;curved=1;" edge="1" parent="rjzxUrOQmyywxVnxVAeF-51">
          <mxGeometry width="50" height="50" relative="1" as="geometry">
            <mxPoint x="1.4109589041095896" y="263.99999999999994" as="sourcePoint" />
            <mxPoint x="1.4109589041095896" as="targetPoint" />
          </mxGeometry>
        </mxCell>
        <mxCell id="rjzxUrOQmyywxVnxVAeF-54" value="" style="endArrow=none;html=1;rounded=0;fontSize=12;startSize=8;endSize=8;curved=1;" edge="1" parent="rjzxUrOQmyywxVnxVAeF-51">
          <mxGeometry width="50" height="50" relative="1" as="geometry">
            <mxPoint x="1.4109589041095896" y="262.6733668341714" as="sourcePoint" />
            <mxPoint x="103.00000000000001" y="220.22110552763874" as="targetPoint" />
          </mxGeometry>
        </mxCell>
        <mxCell id="rjzxUrOQmyywxVnxVAeF-55" value="" style="endArrow=none;html=1;rounded=0;fontSize=12;startSize=8;endSize=8;curved=1;" edge="1" parent="rjzxUrOQmyywxVnxVAeF-51">
          <mxGeometry width="50" height="50" relative="1" as="geometry">
            <mxPoint x="103.00000000000001" y="221.54773869346727" as="sourcePoint" />
            <mxPoint x="103.00000000000001" y="42.45226130653265" as="targetPoint" />
          </mxGeometry>
        </mxCell>
        <mxCell id="rjzxUrOQmyywxVnxVAeF-56" value="MUX&lt;div&gt;2 to 1&lt;/div&gt;" style="text;html=1;align=center;verticalAlign=middle;resizable=0;points=[];autosize=1;strokeColor=none;fillColor=none;fontSize=16;" vertex="1" parent="rjzxUrOQmyywxVnxVAeF-51">
          <mxGeometry x="23" y="112" width="58" height="50" as="geometry" />
        </mxCell>
        <mxCell id="rjzxUrOQmyywxVnxVAeF-57" value="&lt;b&gt;Comparator&lt;/b&gt;" style="rounded=0;whiteSpace=wrap;html=1;" vertex="1" parent="1">
          <mxGeometry x="-741" y="2067" width="120" height="60" as="geometry" />
        </mxCell>
        <mxCell id="rjzxUrOQmyywxVnxVAeF-58" style="edgeStyle=none;curved=0;rounded=0;orthogonalLoop=1;jettySize=auto;html=1;entryX=0.5;entryY=1;entryDx=0;entryDy=0;fontSize=12;startSize=8;endSize=8;" edge="1" parent="1" source="rjzxUrOQmyywxVnxVAeF-62" target="rjzxUrOQmyywxVnxVAeF-57">
          <mxGeometry relative="1" as="geometry">
            <Array as="points">
              <mxPoint x="-681" y="2238" />
            </Array>
          </mxGeometry>
        </mxCell>
        <mxCell id="rjzxUrOQmyywxVnxVAeF-59" style="edgeStyle=none;curved=0;rounded=0;orthogonalLoop=1;jettySize=auto;html=1;entryX=0.5;entryY=1;entryDx=0;entryDy=0;fontSize=12;startSize=8;endSize=8;exitX=0.314;exitY=0.107;exitDx=0;exitDy=0;exitPerimeter=0;" edge="1" parent="1" source="rjzxUrOQmyywxVnxVAeF-62" target="rjzxUrOQmyywxVnxVAeF-64">
          <mxGeometry relative="1" as="geometry">
            <Array as="points">
              <mxPoint x="-353" y="2174" />
              <mxPoint x="-410" y="2174" />
            </Array>
          </mxGeometry>
        </mxCell>
        <mxCell id="rjzxUrOQmyywxVnxVAeF-60" style="edgeStyle=none;curved=0;rounded=0;orthogonalLoop=1;jettySize=auto;html=1;entryX=0.5;entryY=1;entryDx=0;entryDy=0;fontSize=12;startSize=8;endSize=8;exitX=0.713;exitY=0.012;exitDx=0;exitDy=0;exitPerimeter=0;" edge="1" parent="1" target="rjzxUrOQmyywxVnxVAeF-65">
          <mxGeometry relative="1" as="geometry">
            <mxPoint x="-296.6909999999998" y="2224.372" as="sourcePoint" />
            <Array as="points">
              <mxPoint x="-297" y="2177" />
              <mxPoint x="-123" y="2177" />
            </Array>
          </mxGeometry>
        </mxCell>
        <mxCell id="rjzxUrOQmyywxVnxVAeF-62" value="&lt;b&gt;ALU_FUN&lt;/b&gt;" style="text;html=1;align=center;verticalAlign=middle;resizable=0;points=[];autosize=1;strokeColor=none;fillColor=none;fontSize=16;" vertex="1" parent="1">
          <mxGeometry x="-382" y="2222" width="93" height="31" as="geometry" />
        </mxCell>
        <mxCell id="rjzxUrOQmyywxVnxVAeF-63" style="edgeStyle=none;curved=0;rounded=0;orthogonalLoop=1;jettySize=auto;html=1;fontSize=12;startSize=8;endSize=8;entryX=0.25;entryY=0.5;entryDx=0;entryDy=0;entryPerimeter=0;endArrow=none;endFill=0;" edge="1" parent="1" source="rjzxUrOQmyywxVnxVAeF-64" target="rjzxUrOQmyywxVnxVAeF-77">
          <mxGeometry relative="1" as="geometry">
            <mxPoint x="-410" y="1946" as="targetPoint" />
            <Array as="points">
              <mxPoint x="-410" y="2029" />
              <mxPoint x="-333" y="2029" />
              <mxPoint x="-333" y="1946" />
            </Array>
          </mxGeometry>
        </mxCell>
        <mxCell id="rjzxUrOQmyywxVnxVAeF-64" value="&lt;b&gt;Comparator&lt;/b&gt;" style="rounded=0;whiteSpace=wrap;html=1;" vertex="1" parent="1">
          <mxGeometry x="-470.5" y="2065" width="120" height="60" as="geometry" />
        </mxCell>
        <mxCell id="rjzxUrOQmyywxVnxVAeF-65" value="&lt;b&gt;Comparator&lt;/b&gt;" style="rounded=0;whiteSpace=wrap;html=1;" vertex="1" parent="1">
          <mxGeometry x="-183" y="2065" width="120" height="60" as="geometry" />
        </mxCell>
        <mxCell id="rjzxUrOQmyywxVnxVAeF-68" style="edgeStyle=none;curved=1;rounded=0;orthogonalLoop=1;jettySize=auto;html=1;entryX=0;entryY=0.5;entryDx=0;entryDy=0;fontSize=12;startSize=8;endSize=8;" edge="1" parent="1" source="rjzxUrOQmyywxVnxVAeF-69" target="rjzxUrOQmyywxVnxVAeF-57">
          <mxGeometry relative="1" as="geometry" />
        </mxCell>
        <mxCell id="rjzxUrOQmyywxVnxVAeF-69" value="4&#39;b1010" style="text;html=1;align=center;verticalAlign=middle;resizable=0;points=[];autosize=1;strokeColor=none;fillColor=none;fontSize=16;" vertex="1" parent="1">
          <mxGeometry x="-863" y="2081.5" width="74" height="31" as="geometry" />
        </mxCell>
        <mxCell id="rjzxUrOQmyywxVnxVAeF-70" style="edgeStyle=none;curved=1;rounded=0;orthogonalLoop=1;jettySize=auto;html=1;fontSize=12;startSize=8;endSize=8;" edge="1" parent="1" source="rjzxUrOQmyywxVnxVAeF-71" target="rjzxUrOQmyywxVnxVAeF-64">
          <mxGeometry relative="1" as="geometry" />
        </mxCell>
        <mxCell id="rjzxUrOQmyywxVnxVAeF-71" value="4&#39;b1011" style="text;html=1;align=center;verticalAlign=middle;resizable=0;points=[];autosize=1;strokeColor=none;fillColor=none;fontSize=16;" vertex="1" parent="1">
          <mxGeometry x="-582" y="2079.5" width="73" height="31" as="geometry" />
        </mxCell>
        <mxCell id="rjzxUrOQmyywxVnxVAeF-72" style="edgeStyle=none;curved=1;rounded=0;orthogonalLoop=1;jettySize=auto;html=1;entryX=0;entryY=0.5;entryDx=0;entryDy=0;fontSize=12;startSize=8;endSize=8;" edge="1" parent="1" target="rjzxUrOQmyywxVnxVAeF-65">
          <mxGeometry relative="1" as="geometry">
            <mxPoint x="-232" y="2095" as="sourcePoint" />
          </mxGeometry>
        </mxCell>
        <mxCell id="rjzxUrOQmyywxVnxVAeF-73" value="4&#39;b1100" style="text;html=1;align=center;verticalAlign=middle;resizable=0;points=[];autosize=1;strokeColor=none;fillColor=none;fontSize=16;" vertex="1" parent="1">
          <mxGeometry x="-310.5" y="2079.5" width="73" height="31" as="geometry" />
        </mxCell>
        <mxCell id="rjzxUrOQmyywxVnxVAeF-76" style="edgeStyle=none;curved=0;rounded=0;orthogonalLoop=1;jettySize=auto;html=1;exitX=0.5;exitY=0;exitDx=0;exitDy=0;fontSize=12;startSize=8;endSize=8;entryX=0.154;entryY=0.215;entryDx=0;entryDy=0;entryPerimeter=0;endArrow=none;endFill=0;" edge="1" parent="1" source="rjzxUrOQmyywxVnxVAeF-57" target="rjzxUrOQmyywxVnxVAeF-77">
          <mxGeometry relative="1" as="geometry">
            <mxPoint x="-358.8109999999999" y="1938.036" as="targetPoint" />
            <Array as="points">
              <mxPoint x="-681" y="1993" />
              <mxPoint x="-535" y="1993" />
              <mxPoint x="-355" y="1995" />
            </Array>
          </mxGeometry>
        </mxCell>
        <mxCell id="rjzxUrOQmyywxVnxVAeF-77" value="" style="shape=xor;whiteSpace=wrap;html=1;direction=north;points=[[0.1,0.93,0,0,0],[0.25,0.5,0,0,0],[0.28,0.8,0,0,0],[0.7,0.1,0,0,0],[0.7,0.9,0,0,0],[0.72,0.8,0,0,0],[0.9,0.93,0,0,0],[1,0.5,0,0,0]];" vertex="1" parent="1">
          <mxGeometry x="-372.5039999999999" y="1848.002" width="80" height="60" as="geometry" />
        </mxCell>
        <mxCell id="rjzxUrOQmyywxVnxVAeF-78" style="edgeStyle=none;curved=0;rounded=0;orthogonalLoop=1;jettySize=auto;html=1;fontSize=12;startSize=8;endSize=8;endArrow=none;endFill=0;entryX=0.167;entryY=0.79;entryDx=0;entryDy=0;entryPerimeter=0;" edge="1" parent="1" source="rjzxUrOQmyywxVnxVAeF-65" target="rjzxUrOQmyywxVnxVAeF-77">
          <mxGeometry relative="1" as="geometry">
            <Array as="points">
              <mxPoint x="-123" y="2008" />
              <mxPoint x="-309" y="2006" />
            </Array>
            <mxPoint x="-309" y="1901" as="targetPoint" />
          </mxGeometry>
        </mxCell>
        <mxCell id="rjzxUrOQmyywxVnxVAeF-79" style="edgeStyle=none;curved=1;rounded=0;orthogonalLoop=1;jettySize=auto;html=1;fontSize=12;startSize=8;endSize=8;endArrow=none;endFill=0;" edge="1" parent="1" source="rjzxUrOQmyywxVnxVAeF-77">
          <mxGeometry relative="1" as="geometry">
            <mxPoint x="-332" y="1675" as="targetPoint" />
          </mxGeometry>
        </mxCell>
        <mxCell id="rjzxUrOQmyywxVnxVAeF-80" value="&lt;b&gt;1&#39;b0&lt;/b&gt;" style="text;html=1;align=center;verticalAlign=middle;resizable=0;points=[];autosize=1;strokeColor=none;fillColor=none;fontSize=16;" vertex="1" parent="1">
          <mxGeometry x="-493" y="1495" width="49" height="31" as="geometry" />
        </mxCell>
        <mxCell id="rjzxUrOQmyywxVnxVAeF-81" style="edgeStyle=none;curved=1;rounded=0;orthogonalLoop=1;jettySize=auto;html=1;fontSize=12;startSize=8;endSize=8;entryX=0;entryY=0.65;entryDx=0;entryDy=0;entryPerimeter=0;" edge="1" parent="1" source="rjzxUrOQmyywxVnxVAeF-82" target="rjzxUrOQmyywxVnxVAeF-51">
          <mxGeometry relative="1" as="geometry">
            <mxPoint x="-406.5238385881694" y="1607.5" as="targetPoint" />
          </mxGeometry>
        </mxCell>
        <mxCell id="rjzxUrOQmyywxVnxVAeF-82" value="&lt;b&gt;1&#39;b1&lt;/b&gt;" style="text;html=1;align=center;verticalAlign=middle;resizable=0;points=[];autosize=1;strokeColor=none;fillColor=none;fontSize=16;" vertex="1" parent="1">
          <mxGeometry x="-493" y="1590" width="49" height="31" as="geometry" />
        </mxCell>
        <mxCell id="rjzxUrOQmyywxVnxVAeF-83" style="edgeStyle=none;curved=1;rounded=0;orthogonalLoop=1;jettySize=auto;html=1;entryX=0;entryY=0.29;entryDx=0;entryDy=0;entryPerimeter=0;fontSize=12;startSize=8;endSize=8;" edge="1" parent="1" source="rjzxUrOQmyywxVnxVAeF-80" target="rjzxUrOQmyywxVnxVAeF-51">
          <mxGeometry relative="1" as="geometry" />
        </mxCell>
        <mxCell id="rjzxUrOQmyywxVnxVAeF-84" value="&lt;b&gt;CMP_flag&lt;/b&gt;" style="text;html=1;align=center;verticalAlign=middle;resizable=0;points=[];autosize=1;strokeColor=none;fillColor=none;fontSize=16;" vertex="1" parent="1">
          <mxGeometry x="-131.5" y="1552.5" width="91" height="31" as="geometry" />
        </mxCell>
        <mxCell id="rjzxUrOQmyywxVnxVAeF-85" style="edgeStyle=none;curved=1;rounded=0;orthogonalLoop=1;jettySize=auto;html=1;entryX=-0.008;entryY=0.466;entryDx=0;entryDy=0;entryPerimeter=0;fontSize=12;startSize=8;endSize=8;endArrow=none;endFill=0;" edge="1" parent="1" source="rjzxUrOQmyywxVnxVAeF-51" target="rjzxUrOQmyywxVnxVAeF-84">
          <mxGeometry relative="1" as="geometry" />
        </mxCell>
        <mxCell id="rjzxUrOQmyywxVnxVAeF-86" value="" style="group;movable=1;resizable=1;rotatable=1;deletable=1;editable=1;locked=0;connectable=1;points=[[0,0.06,0,0,0],[0,0.12,0,0,0],[0,0.18,0,0,0],[0,0.24,0,0,0],[0,0.29,0,0,0],[0,0.35,0,0,0],[0,0.41,0,0,0],[0,0.47,0,0,0],[0,0.53,0,0,0],[0,0.59,0,0,0],[0,0.65,0,0,0],[0,0.71,0,0,0],[0,0.76,0,0,0],[0,0.82,0,0,0],[0,0.88,0,0,0],[0,0.94,0,0,0],[0.5,1,0,0,0]];" vertex="1" connectable="0" parent="1">
          <mxGeometry x="772.75" y="-1430" width="103" height="264" as="geometry" />
        </mxCell>
        <mxCell id="rjzxUrOQmyywxVnxVAeF-87" value="" style="endArrow=none;html=1;rounded=0;fontSize=12;startSize=8;endSize=8;curved=1;" edge="1" parent="rjzxUrOQmyywxVnxVAeF-86">
          <mxGeometry width="50" height="50" relative="1" as="geometry">
            <mxPoint as="sourcePoint" />
            <mxPoint x="103.00000000000001" y="42.45226130653265" as="targetPoint" />
          </mxGeometry>
        </mxCell>
        <mxCell id="rjzxUrOQmyywxVnxVAeF-88" value="" style="endArrow=none;html=1;rounded=0;fontSize=12;startSize=8;endSize=8;curved=1;" edge="1" parent="rjzxUrOQmyywxVnxVAeF-86">
          <mxGeometry width="50" height="50" relative="1" as="geometry">
            <mxPoint x="1.4109589041095896" y="263.99999999999994" as="sourcePoint" />
            <mxPoint x="1.4109589041095896" as="targetPoint" />
          </mxGeometry>
        </mxCell>
        <mxCell id="rjzxUrOQmyywxVnxVAeF-89" value="" style="endArrow=none;html=1;rounded=0;fontSize=12;startSize=8;endSize=8;curved=1;" edge="1" parent="rjzxUrOQmyywxVnxVAeF-86">
          <mxGeometry width="50" height="50" relative="1" as="geometry">
            <mxPoint x="1.4109589041095896" y="262.6733668341714" as="sourcePoint" />
            <mxPoint x="103.00000000000001" y="220.22110552763874" as="targetPoint" />
          </mxGeometry>
        </mxCell>
        <mxCell id="rjzxUrOQmyywxVnxVAeF-90" value="" style="endArrow=none;html=1;rounded=0;fontSize=12;startSize=8;endSize=8;curved=1;" edge="1" parent="rjzxUrOQmyywxVnxVAeF-86">
          <mxGeometry width="50" height="50" relative="1" as="geometry">
            <mxPoint x="103.00000000000001" y="221.54773869346727" as="sourcePoint" />
            <mxPoint x="103.00000000000001" y="42.45226130653265" as="targetPoint" />
          </mxGeometry>
        </mxCell>
        <mxCell id="rjzxUrOQmyywxVnxVAeF-91" value="MUX&lt;div&gt;2 to 1&lt;/div&gt;" style="text;html=1;align=center;verticalAlign=middle;resizable=0;points=[];autosize=1;strokeColor=none;fillColor=none;fontSize=16;" vertex="1" parent="rjzxUrOQmyywxVnxVAeF-86">
          <mxGeometry x="23" y="112" width="58" height="50" as="geometry" />
        </mxCell>
        <mxCell id="rjzxUrOQmyywxVnxVAeF-94" style="edgeStyle=none;curved=0;rounded=0;orthogonalLoop=1;jettySize=auto;html=1;entryX=0.5;entryY=1;entryDx=0;entryDy=0;fontSize=12;startSize=8;endSize=8;exitX=0.314;exitY=0.107;exitDx=0;exitDy=0;exitPerimeter=0;" edge="1" parent="1" source="rjzxUrOQmyywxVnxVAeF-97" target="rjzxUrOQmyywxVnxVAeF-99">
          <mxGeometry relative="1" as="geometry">
            <Array as="points">
              <mxPoint x="803.75" y="-690" />
              <mxPoint x="746.75" y="-690" />
            </Array>
          </mxGeometry>
        </mxCell>
        <mxCell id="rjzxUrOQmyywxVnxVAeF-95" style="edgeStyle=none;curved=0;rounded=0;orthogonalLoop=1;jettySize=auto;html=1;entryX=0.5;entryY=1;entryDx=0;entryDy=0;fontSize=12;startSize=8;endSize=8;exitX=0.713;exitY=0.012;exitDx=0;exitDy=0;exitPerimeter=0;" edge="1" parent="1" target="rjzxUrOQmyywxVnxVAeF-100">
          <mxGeometry relative="1" as="geometry">
            <mxPoint x="860.0590000000002" y="-639.6280000000002" as="sourcePoint" />
            <Array as="points">
              <mxPoint x="859.75" y="-687" />
              <mxPoint x="1033.75" y="-687" />
            </Array>
          </mxGeometry>
        </mxCell>
        <mxCell id="rjzxUrOQmyywxVnxVAeF-97" value="&lt;b&gt;ALU_FUN&lt;/b&gt;" style="text;html=1;align=center;verticalAlign=middle;resizable=0;points=[];autosize=1;strokeColor=none;fillColor=none;fontSize=16;" vertex="1" parent="1">
          <mxGeometry x="774.75" y="-642" width="93" height="31" as="geometry" />
        </mxCell>
        <mxCell id="rjzxUrOQmyywxVnxVAeF-98" style="edgeStyle=none;curved=0;rounded=0;orthogonalLoop=1;jettySize=auto;html=1;fontSize=12;startSize=8;endSize=8;entryX=0.217;entryY=0.34;entryDx=0;entryDy=0;entryPerimeter=0;endArrow=none;endFill=0;" edge="1" parent="1" source="rjzxUrOQmyywxVnxVAeF-99" target="rjzxUrOQmyywxVnxVAeF-112">
          <mxGeometry relative="1" as="geometry">
            <mxPoint x="746.75" y="-918" as="targetPoint" />
            <Array as="points">
              <mxPoint x="746.75" y="-835" />
              <mxPoint x="811.75" y="-835" />
              <mxPoint x="811.75" y="-918" />
            </Array>
          </mxGeometry>
        </mxCell>
        <mxCell id="rjzxUrOQmyywxVnxVAeF-99" value="&lt;b&gt;Comparator&lt;/b&gt;" style="rounded=0;whiteSpace=wrap;html=1;" vertex="1" parent="1">
          <mxGeometry x="686.25" y="-799" width="120" height="60" as="geometry" />
        </mxCell>
        <mxCell id="rjzxUrOQmyywxVnxVAeF-100" value="&lt;b&gt;Comparator&lt;/b&gt;" style="rounded=0;whiteSpace=wrap;html=1;" vertex="1" parent="1">
          <mxGeometry x="973.75" y="-799" width="120" height="60" as="geometry" />
        </mxCell>
        <mxCell id="rjzxUrOQmyywxVnxVAeF-105" style="edgeStyle=none;curved=1;rounded=0;orthogonalLoop=1;jettySize=auto;html=1;fontSize=12;startSize=8;endSize=8;" edge="1" parent="1" source="rjzxUrOQmyywxVnxVAeF-106" target="rjzxUrOQmyywxVnxVAeF-99">
          <mxGeometry relative="1" as="geometry" />
        </mxCell>
        <mxCell id="rjzxUrOQmyywxVnxVAeF-106" value="4&#39;b1101" style="text;html=1;align=center;verticalAlign=middle;resizable=0;points=[];autosize=1;strokeColor=none;fillColor=none;fontSize=16;" vertex="1" parent="1">
          <mxGeometry x="574.75" y="-784.5" width="73" height="31" as="geometry" />
        </mxCell>
        <mxCell id="rjzxUrOQmyywxVnxVAeF-107" style="edgeStyle=none;curved=1;rounded=0;orthogonalLoop=1;jettySize=auto;html=1;entryX=0;entryY=0.5;entryDx=0;entryDy=0;fontSize=12;startSize=8;endSize=8;" edge="1" parent="1" target="rjzxUrOQmyywxVnxVAeF-100">
          <mxGeometry relative="1" as="geometry">
            <mxPoint x="924.75" y="-769" as="sourcePoint" />
          </mxGeometry>
        </mxCell>
        <mxCell id="rjzxUrOQmyywxVnxVAeF-108" value="4&#39;b1110" style="text;html=1;align=center;verticalAlign=middle;resizable=0;points=[];autosize=1;strokeColor=none;fillColor=none;fontSize=16;" vertex="1" parent="1">
          <mxGeometry x="846.25" y="-784.5" width="72" height="31" as="geometry" />
        </mxCell>
        <mxCell id="rjzxUrOQmyywxVnxVAeF-112" value="" style="shape=xor;whiteSpace=wrap;html=1;direction=north;points=[[0.1,0.93,0,0,0],[0.25,0.5,0,0,0],[0.28,0.8,0,0,0],[0.7,0.1,0,0,0],[0.7,0.9,0,0,0],[0.72,0.8,0,0,0],[0.9,0.93,0,0,0],[1,0.5,0,0,0]];" vertex="1" parent="1">
          <mxGeometry x="784.2460000000001" y="-1015.998" width="80" height="60" as="geometry" />
        </mxCell>
        <mxCell id="rjzxUrOQmyywxVnxVAeF-113" style="edgeStyle=none;curved=0;rounded=0;orthogonalLoop=1;jettySize=auto;html=1;entryX=0.202;entryY=0.713;entryDx=0;entryDy=0;entryPerimeter=0;fontSize=12;startSize=8;endSize=8;endArrow=none;endFill=0;" edge="1" parent="1" source="rjzxUrOQmyywxVnxVAeF-100" target="rjzxUrOQmyywxVnxVAeF-112">
          <mxGeometry relative="1" as="geometry">
            <Array as="points">
              <mxPoint x="1033.75" y="-856" />
              <mxPoint x="842.75" y="-858" />
            </Array>
          </mxGeometry>
        </mxCell>
        <mxCell id="rjzxUrOQmyywxVnxVAeF-114" style="edgeStyle=none;curved=1;rounded=0;orthogonalLoop=1;jettySize=auto;html=1;fontSize=12;startSize=8;endSize=8;endArrow=none;endFill=0;" edge="1" parent="1" source="rjzxUrOQmyywxVnxVAeF-112">
          <mxGeometry relative="1" as="geometry">
            <mxPoint x="824.75" y="-1189" as="targetPoint" />
          </mxGeometry>
        </mxCell>
        <mxCell id="rjzxUrOQmyywxVnxVAeF-115" value="&lt;b&gt;1&#39;b0&lt;/b&gt;" style="text;html=1;align=center;verticalAlign=middle;resizable=0;points=[];autosize=1;strokeColor=none;fillColor=none;fontSize=16;" vertex="1" parent="1">
          <mxGeometry x="663.75" y="-1369" width="49" height="31" as="geometry" />
        </mxCell>
        <mxCell id="rjzxUrOQmyywxVnxVAeF-116" style="edgeStyle=none;curved=1;rounded=0;orthogonalLoop=1;jettySize=auto;html=1;fontSize=12;startSize=8;endSize=8;entryX=0;entryY=0.65;entryDx=0;entryDy=0;entryPerimeter=0;" edge="1" parent="1" source="rjzxUrOQmyywxVnxVAeF-117" target="rjzxUrOQmyywxVnxVAeF-86">
          <mxGeometry relative="1" as="geometry">
            <mxPoint x="750.2261614118306" y="-1256.5" as="targetPoint" />
          </mxGeometry>
        </mxCell>
        <mxCell id="rjzxUrOQmyywxVnxVAeF-117" value="&lt;b&gt;1&#39;b1&lt;/b&gt;" style="text;html=1;align=center;verticalAlign=middle;resizable=0;points=[];autosize=1;strokeColor=none;fillColor=none;fontSize=16;" vertex="1" parent="1">
          <mxGeometry x="663.75" y="-1274" width="49" height="31" as="geometry" />
        </mxCell>
        <mxCell id="rjzxUrOQmyywxVnxVAeF-118" style="edgeStyle=none;curved=1;rounded=0;orthogonalLoop=1;jettySize=auto;html=1;entryX=0;entryY=0.29;entryDx=0;entryDy=0;entryPerimeter=0;fontSize=12;startSize=8;endSize=8;" edge="1" parent="1" source="rjzxUrOQmyywxVnxVAeF-115" target="rjzxUrOQmyywxVnxVAeF-86">
          <mxGeometry relative="1" as="geometry" />
        </mxCell>
        <mxCell id="rjzxUrOQmyywxVnxVAeF-119" value="&lt;b&gt;Shift_flag&lt;/b&gt;" style="text;html=1;align=center;verticalAlign=middle;resizable=0;points=[];autosize=1;strokeColor=none;fillColor=none;fontSize=16;" vertex="1" parent="1">
          <mxGeometry x="1025.25" y="-1311.5" width="91" height="31" as="geometry" />
        </mxCell>
        <mxCell id="rjzxUrOQmyywxVnxVAeF-120" style="edgeStyle=none;curved=1;rounded=0;orthogonalLoop=1;jettySize=auto;html=1;entryX=-0.008;entryY=0.466;entryDx=0;entryDy=0;entryPerimeter=0;fontSize=12;startSize=8;endSize=8;endArrow=none;endFill=0;" edge="1" parent="1" source="rjzxUrOQmyywxVnxVAeF-86" target="rjzxUrOQmyywxVnxVAeF-119">
          <mxGeometry relative="1" as="geometry" />
        </mxCell>
        <mxCell id="rjzxUrOQmyywxVnxVAeF-122" value="&lt;b&gt;Comparator&lt;/b&gt;" style="rounded=0;whiteSpace=wrap;html=1;" vertex="1" parent="1">
          <mxGeometry x="1602" y="2077" width="120" height="60" as="geometry" />
        </mxCell>
        <mxCell id="rjzxUrOQmyywxVnxVAeF-123" style="edgeStyle=none;curved=1;rounded=0;orthogonalLoop=1;jettySize=auto;html=1;fontSize=12;startSize=8;endSize=8;" edge="1" parent="1" source="rjzxUrOQmyywxVnxVAeF-124" target="rjzxUrOQmyywxVnxVAeF-122">
          <mxGeometry relative="1" as="geometry" />
        </mxCell>
        <mxCell id="rjzxUrOQmyywxVnxVAeF-124" value="4&#39;b1000" style="text;html=1;align=center;verticalAlign=middle;resizable=0;points=[];autosize=1;strokeColor=none;fillColor=none;fontSize=16;" vertex="1" parent="1">
          <mxGeometry x="1501" y="2093.5" width="74" height="31" as="geometry" />
        </mxCell>
        <mxCell id="rjzxUrOQmyywxVnxVAeF-127" style="edgeStyle=none;curved=0;rounded=0;orthogonalLoop=1;jettySize=auto;html=1;entryX=0.174;entryY=0.771;entryDx=0;entryDy=0;entryPerimeter=0;fontSize=12;startSize=8;endSize=8;endArrow=none;endFill=0;" edge="1" parent="1" source="rjzxUrOQmyywxVnxVAeF-122" target="rjzxUrOQmyywxVnxVAeF-42">
          <mxGeometry relative="1" as="geometry">
            <Array as="points">
              <mxPoint x="1660" y="1949" />
              <mxPoint x="956" y="1945" />
            </Array>
          </mxGeometry>
        </mxCell>
      </root>
    </mxGraphModel>
  </diagram>
</mxfile>
